<svg width="108" height="95" viewBox="0 0 108 95" fill="none" xmlns="http://www.w3.org/2000/svg">
<g clip-path="url(#clip0)">
<path d="M105.19 65.9204H88.8316V52.8853C88.8413 49.3781 87.5458 45.9927 85.1972 43.3879V37.5942L85.5718 37.9688L90.6499 46.433V49.5645C90.6501 49.9017 90.7441 50.2323 90.9214 50.5192C91.0986 50.8061 91.3522 51.0381 91.6537 51.1891L95.2882 53.0074C95.6302 53.1793 96.0177 53.2389 96.3956 53.1777C96.7735 53.1165 97.1224 52.9376 97.3926 52.6665L101.014 49.0342C101.274 48.7745 101.449 48.4423 101.516 48.0814C101.584 47.7204 101.54 47.3475 101.391 47.0118L94.1139 30.6411C94.0486 30.4959 87.5753 22.6925 87.5753 22.6925C85.4852 20.1846 82.5648 18.5097 79.3447 17.9722L74.294 17.1304V15.1837L75.0474 14.5798C75.9965 13.8183 76.6857 12.7808 77.0198 11.6107C77.3538 10.4406 77.3162 9.19564 76.9121 8.04785C76.508 6.90005 75.7574 5.90609 74.764 5.20332C73.7706 4.50055 72.5835 4.12366 71.3666 4.12474H69.8114L68.9697 2.86206C68.1025 1.55808 66.7882 0.6165 65.2746 0.214922C63.7609 -0.186657 62.1527 -0.0204698 60.7532 0.682135C59.3537 1.38474 58.2596 2.57519 57.6775 4.02893C57.0953 5.48267 57.0652 7.0992 57.5929 8.57359L59.7836 14.7123C59.7668 14.8133 59.7542 19.3864 59.7542 19.3864C59.755 21.1209 60.3755 22.798 61.5038 24.1153C62.6321 25.4327 64.1939 26.3036 65.9077 26.571C65.9362 27.42 66.148 28.2527 66.5285 29.0122L67.023 30.0034V30.7526L60.3982 39.0274L53.485 42.4829C53.0936 42.6788 52.786 43.0092 52.6186 43.4135C52.4512 43.8179 52.4353 44.2691 52.5737 44.6842L54.392 50.1369C54.5125 50.4988 54.7438 50.8136 55.0531 51.0368C55.3624 51.26 55.7341 51.3803 56.1156 51.3806H59.75C60.1262 51.3827 60.4939 51.268 60.8022 51.0523L66.4569 47.0938L63.4223 63.7781C63.3406 64.2393 63.4401 64.7143 63.7 65.1041C63.96 65.4938 64.3603 65.7681 64.8175 65.8699L63.5549 72.1328C63.3909 72.9442 63.4783 73.7862 63.8053 74.5467L68.3951 85.231L64.1862 88.0363C63.9374 88.2026 63.7335 88.4276 63.5925 88.6916C63.4515 88.9555 63.3779 89.2502 63.3781 89.5494V93.1838C63.3781 93.6661 63.5696 94.1286 63.9106 94.4696C64.2516 94.8105 64.7141 95.0021 65.1963 95.0021H77.92C78.4022 95.0021 78.8647 94.8105 79.2057 94.4696C79.5467 94.1286 79.7382 93.6661 79.7382 93.1838C79.7382 93.1838 79.7382 85.8919 79.7382 85.8792C79.7382 85.8666 74.4097 73.103 74.4097 73.103L76.5142 66.6549L77.6401 73.4081C77.7966 74.3643 78.2887 75.2335 79.028 75.8597C79.7672 76.486 80.7054 76.8285 81.6743 76.8258H95.143L98.2386 81.4683C98.4046 81.7175 98.6296 81.9218 98.8936 82.0631C99.1575 82.2045 99.4523 82.2785 99.7517 82.2785H99.897L105.35 81.8408C105.805 81.8043 106.23 81.5975 106.54 81.2618C106.85 80.926 107.023 80.4858 107.023 80.0288V67.7366C107.022 67.4967 106.975 67.2593 106.882 67.038C106.79 66.8167 106.655 66.6158 106.484 66.447C106.314 66.2782 106.112 66.1448 105.89 66.0544C105.667 65.964 105.43 65.9185 105.19 65.9204ZM67.0209 42.2556L59.1776 47.7441H57.4245L56.5196 45.0293L62.3806 42.0894C62.6154 41.9722 62.8222 41.8057 62.9866 41.6012L67.0209 36.5504V42.2556ZM97.5694 47.3506L95.7427 49.1773L94.2801 48.4386V45.928C94.2799 45.5988 94.1904 45.2759 94.0213 44.9936L89.2988 37.1228L91.8768 34.5449L97.5694 47.3506ZM78.7554 21.5624C81.1165 21.9563 83.258 23.1839 84.7911 25.0221L90.008 31.2829L87.0134 34.2776L84.6627 31.9269C84.4083 31.6733 84.0845 31.5007 83.7321 31.4309C83.3797 31.3612 83.0146 31.3974 82.6827 31.5349C82.3509 31.6725 82.0672 31.9052 81.8675 32.2038C81.6678 32.5024 81.5611 32.8535 81.5607 33.2127V42.2998H70.6553V29.5699C70.6554 29.2879 70.5899 29.0098 70.4638 28.7576L69.7757 27.3834C69.5924 27.0175 69.5116 26.6087 69.5421 26.2006C70.7096 25.7687 71.7465 25.0441 72.5536 24.0964C73.3606 23.1486 73.9106 22.0094 74.1509 20.7879L78.7554 21.5624ZM61.0148 7.3551C60.787 6.71652 60.8007 6.01669 61.0532 5.38749C61.3057 4.75829 61.7796 4.24314 62.3856 3.93911C62.9916 3.63509 63.6878 3.56317 64.3431 3.7369C64.9985 3.91064 65.5677 4.31804 65.9434 4.88235L67.3261 6.94473C67.4923 7.19354 67.7174 7.39747 67.9813 7.53844C68.2453 7.67941 68.5399 7.75306 68.8392 7.75285H71.3645C71.8283 7.75273 72.2807 7.89663 72.6592 8.16468C73.0377 8.43272 73.3236 8.81169 73.4775 9.24922C73.6313 9.68675 73.6455 10.1613 73.5181 10.6072C73.3907 11.0532 73.1279 11.4485 72.7661 11.7387L71.8317 12.4879H62.8499L61.0148 7.3551ZM63.4517 20.0724C63.4084 19.847 63.3866 19.618 63.3865 19.3885V16.1307H70.6574V19.3822C70.6571 20.2172 70.3692 21.0266 69.8422 21.6743C69.3152 22.322 68.5813 22.7685 67.7638 22.9387H67.707C66.7619 23.1209 65.7831 22.9208 64.9854 22.3823C64.1876 21.8438 63.6361 21.0108 63.4517 20.0661V20.0724ZM76.1101 91.3719H67.0209V90.5301L71.2067 87.7396H76.108L76.1101 91.3719ZM75.1715 84.101H71.8549L67.1514 73.1282C67.1154 73.044 67.1059 72.9508 67.124 72.861L68.5109 65.9267H72.9303L70.75 72.6358C70.6137 73.0544 70.6339 73.5083 70.8069 73.9132L75.1715 84.101ZM77.8337 58.0834C77.6989 57.6724 77.4221 57.3229 77.0529 57.0977C76.6837 56.8724 76.2464 56.7861 75.8193 56.8543C75.3922 56.9225 75.0034 57.1407 74.7227 57.4697C74.442 57.7987 74.2877 58.217 74.2877 58.6495V62.2923H67.3808L70.3544 45.9343H82.5898C84.2753 47.8595 85.2015 50.3329 85.1951 52.8916V62.2923H79.2353L77.8337 58.0834ZM94.2801 73.1893H81.668C81.5602 73.1896 81.4557 73.1514 81.3736 73.0816C81.2914 73.0118 81.2368 72.9149 81.2198 72.8084L80.0707 65.9183H85.1951V67.7366C85.1951 68.2188 85.3867 68.6813 85.7277 69.0223C86.0687 69.3633 86.5312 69.5548 87.0134 69.5548H94.2801V73.1893ZM103.367 78.3452L100.652 78.5557L97.9166 74.4498V69.5548H103.371L103.367 78.3452Z" fill="#8EC716"/>
<path d="M36.1232 84.6607V84.6881H43.4109L38.3834 74.7213L34.2249 65.3648L30.6705 47.561V39.4104L32.716 41.4559L34.1597 45.7869L32.6866 48.7479C32.5146 49.0899 32.455 49.4775 32.5162 49.8554C32.5774 50.2332 32.7564 50.5822 33.0275 50.8524L36.6619 54.4868C36.9591 54.784 37.35 54.969 37.7682 55.0104C38.1864 55.0518 38.6061 54.9471 38.9558 54.7141L44.4043 51.0755C44.7246 50.8616 44.9688 50.5515 45.1015 50.1899C45.2343 49.8284 45.2488 49.434 45.1429 49.0636L41.5085 36.34C41.4567 36.1591 41.3772 35.9873 41.2728 35.8307L37.6699 30.418L35.2393 26.3669C34.1693 24.5725 32.754 23.0082 31.0753 21.7645C29.3967 20.5207 27.488 19.6223 25.4598 19.1212L24.9063 18.9823C25.1192 18.2902 25.2277 17.5703 25.2283 16.8463V11.785C25.2447 10.8199 25.0688 9.8612 24.7109 8.96479C24.3529 8.06838 23.82 7.25222 23.1433 6.56391C22.4666 5.8756 21.6596 5.32892 20.7694 4.95574C19.8793 4.58257 18.9237 4.39038 17.9584 4.39038C16.9932 4.39038 16.0376 4.58257 15.1474 4.95574C14.2572 5.32892 13.4502 5.8756 12.7735 6.56391C12.0968 7.25222 11.564 8.06838 11.206 8.96479C10.848 9.8612 10.6721 10.8199 10.6885 11.785V16.8463C10.6885 17.6184 10.8114 18.3856 11.0526 19.1191C8.23181 20.3574 5.83389 22.3923 4.15312 24.974C2.47235 27.5557 1.58185 30.572 1.59091 33.6526V36.8387C1.59091 37.321 1.78247 37.7835 2.12346 38.1244C2.46445 38.4654 2.92694 38.657 3.40917 38.657V45.5218L0.172495 52.4244C0.0062748 52.7792 -0.0409111 53.1782 0.0379639 53.5619C0.116839 53.9457 0.317556 54.2937 0.610225 54.5542L3.81744 57.4036L1.78241 61.4716C1.66627 61.7003 1.59996 61.951 1.58786 62.2073C1.57576 62.4635 1.61815 62.7194 1.71222 62.9581C1.80629 63.1967 1.94991 63.4127 2.13359 63.5918C2.31728 63.7709 2.53686 63.909 2.77783 63.9969L0.420823 69.4812C0.146469 70.1275 0.0420815 70.8333 0.117596 71.5313C0.193111 72.2294 0.446016 72.8965 0.852239 73.4691L8.84923 84.6776V93.1817C8.84923 93.6639 9.04079 94.1264 9.38178 94.4674C9.72277 94.8084 10.1853 95 10.6675 95H16.1307C16.4446 95.0001 16.7533 94.919 17.0265 94.7645C17.2998 94.6099 17.5284 94.3873 17.6901 94.1182L23.1491 85.0206C23.3575 84.673 23.4437 84.2657 23.3941 83.8634C23.3446 83.4612 23.162 83.087 22.8755 82.8004L17.507 77.4445L12.9045 71.3121L17.7638 63.0836L20.0261 68.7383C20.1608 69.0749 20.393 69.3636 20.693 69.5672C20.993 69.7708 21.3471 69.8801 21.7096 69.881C21.8275 69.881 22.5514 69.7484 22.5514 69.7484L32.4824 84.646V84.6902H36.1168L36.1232 84.6607ZM35.4918 33.7325L38.0908 37.6111L41.2833 48.7858L38.175 50.8587L36.5188 49.2025L37.7499 46.7403C37.9653 46.3093 38.0009 45.8106 37.8488 45.3534L36.0285 39.9007C35.939 39.6328 35.7884 39.3892 35.5886 39.1894L31.9184 35.5192L35.4918 33.7325ZM15.9308 8.75458C16.3276 8.48976 16.7727 8.30572 17.2407 8.21295C17.7087 8.12019 18.1903 8.12052 18.6582 8.21393C19.126 8.30735 19.5709 8.49201 19.9674 8.75738C20.3638 9.02274 20.7042 9.36361 20.9689 9.76052C21.0124 9.82646 21.0537 9.89661 21.093 9.97097H14.8028C15.0799 9.48392 15.466 9.06761 15.9308 8.75458ZM14.3103 13.5949H21.5813V16.8463C21.5813 17.8105 21.1982 18.7352 20.5165 19.4169C19.8347 20.0987 18.91 20.4817 17.9458 20.4817C16.9816 20.4817 16.0569 20.0987 15.3751 19.4169C14.6933 18.7352 14.3103 17.8105 14.3103 16.8463V13.5949ZM5.22533 33.6526C5.2166 31.1987 5.94768 28.7992 7.32317 26.7672C8.69867 24.7351 10.6547 23.1647 12.9361 22.2611L13.0519 22.2148C14.3885 23.4415 16.1368 24.1221 17.9511 24.1221C19.7653 24.1221 21.5136 23.4415 22.8503 22.2148L22.9597 22.2484L24.5696 22.6504C26.1343 23.0369 27.6068 23.7299 28.9018 24.6894C30.1968 25.6488 31.2887 26.8556 32.1141 28.2399L33.5557 30.6411L28.042 33.3979C27.7405 33.549 27.4869 33.7809 27.3096 34.0679C27.1323 34.3548 27.0383 34.6853 27.0382 35.0226V45.9279H12.4963V31.3882C12.5046 31.1443 12.4637 30.9013 12.3761 30.6736C12.2885 30.4459 12.156 30.2381 11.9865 30.0627C11.8169 29.8872 11.6138 29.7477 11.3891 29.6524C11.1645 29.5571 10.923 29.508 10.6791 29.508C10.4351 29.508 10.1936 29.5571 9.96898 29.6524C9.74437 29.7477 9.54124 29.8872 9.37167 30.0627C9.20211 30.2381 9.06959 30.4459 8.982 30.6736C8.89441 30.9013 8.85355 31.1443 8.86185 31.3882V35.0226H5.22533V33.6526ZM6.87102 46.7003C6.98455 46.4586 7.04347 46.1949 7.04359 45.9279V38.657H8.85975V47.3148L5.4926 54.0365L4.0342 52.738L6.87102 46.7003ZM19.2874 84.3703L15.1016 91.3656H12.4963V84.8417L16.1307 81.2073L19.2874 84.3703ZM13.7316 78.4715L10.9116 81.2915L3.81323 71.3563C3.768 71.2925 3.73981 71.2182 3.73134 71.1405C3.72287 71.0628 3.73439 70.9842 3.76483 70.9122L6.23758 65.1418L11.4819 66.8906L9.167 70.363C8.95732 70.6765 8.85034 71.0475 8.8609 71.4246C8.87146 71.8016 8.99903 72.1661 9.22593 72.4674L13.7316 78.4715ZM19.6367 57.9739C19.5065 57.6487 19.285 57.3681 18.9991 57.1657C18.7131 56.9634 18.3747 56.8479 18.0247 56.8333H17.949C17.6117 56.8335 17.2811 56.9275 16.9942 57.1048C16.7073 57.282 16.4754 57.5356 16.3243 57.8371L13.3907 63.6981L5.97031 61.2232L11.8018 49.5624H27.358L30.3443 64.4915L22.8355 65.9856L19.6367 57.9739ZM26.4152 68.9803L31.4197 67.9849L36.0748 78.4609C36.1463 78.6209 38.638 83.4717 38.7516 83.6043C38.1413 83.5895 37.8572 83.4906 37.0681 83.4633C36.7229 83.4507 36.2452 83.3349 35.9359 83.3054C35.8993 83.2326 35.8578 83.1623 35.8117 83.095L26.4152 68.9803Z" fill="#8EC716"/>
<path d="M43.7623 85.1636L43.4045 84.6775H32.4949C32.314 85.1152 32.0341 85.8834 32.0341 85.8876C32.0341 85.8918 32.0341 93.1922 32.0341 93.1922C32.0341 93.6744 32.2256 94.1369 32.5666 94.4779C32.9076 94.8189 33.3701 95.0104 33.8523 95.0104H46.5717C47.054 95.0104 47.5165 94.8189 47.8574 94.4779C48.1984 94.1369 48.39 93.6744 48.39 93.1922V89.5472C48.3902 89.248 48.3166 88.9533 48.1756 88.6894C48.0346 88.4254 47.8307 88.2004 47.5819 88.0341L43.7623 85.1636ZM40.5677 87.7311L44.7535 90.5216V91.3634H35.6664V87.7311H40.5677Z" fill="#8EC716"/>
</g>
<defs>
<clipPath id="clip0">
<rect width="107.006" height="95" fill="white"/>
</clipPath>
</defs>
</svg>
