<svg width="103" height="95" viewBox="0 0 103 95" fill="none" xmlns="http://www.w3.org/2000/svg">
<g clip-path="url(#clip0)">
<path d="M20.8923 15.4254C20.5806 15.1756 20.1828 15.0603 19.7864 15.1048C19.39 15.1494 19.0275 15.3501 18.7786 15.6629C4.24941 33.9303 10.5143 53.5965 17.8761 61.6996C18.1461 61.9909 18.5198 62.1633 18.9158 62.1796C19.3118 62.1958 19.6982 62.0545 19.991 61.7864C20.2838 61.5183 20.4593 61.145 20.4794 60.7477C20.4994 60.3504 20.3624 59.9613 20.0981 59.6648C13.4061 52.2963 7.76689 34.3469 21.1289 17.5448C21.3772 17.2321 21.4917 16.8333 21.4473 16.436C21.403 16.0386 21.2033 15.6752 20.8923 15.4254Z" fill="#8EC716"/>
<path d="M60.7117 65.2501C61.068 65.2505 61.4129 65.1235 61.6843 64.8918C70.0428 57.7748 78.4114 39.2901 65.3161 19.9821C65.0907 19.6535 64.7448 19.4278 64.3541 19.3544C63.9634 19.281 63.5596 19.3658 63.231 19.5903C62.9024 19.8147 62.6756 20.1607 62.6004 20.5524C62.5251 20.9441 62.6075 21.3499 62.8294 21.6809C74.8237 39.3545 67.2974 56.1546 59.7371 62.5953C59.502 62.7953 59.3339 63.063 59.2554 63.362C59.1769 63.6611 59.1919 63.9771 59.2982 64.2674C59.4045 64.5577 59.5971 64.8082 59.8499 64.985C60.1027 65.1618 60.4035 65.2565 60.7117 65.2561V65.2501Z" fill="#8EC716"/>
<path d="M54.4789 26.1251C54.2535 25.7965 53.9076 25.5708 53.5169 25.4974C53.1262 25.4239 52.7224 25.5087 52.3938 25.7332C52.0651 25.9577 51.8384 26.3036 51.7632 26.6953C51.6879 27.0871 51.7703 27.4928 51.9922 27.8238C60.8019 40.8078 55.2951 53.1357 49.7541 57.8454C49.4557 58.106 49.2716 58.4741 49.2416 58.87C49.2117 59.2659 49.3383 59.6577 49.5942 59.9605C49.85 60.2633 50.2144 60.4528 50.6085 60.4879C51.0025 60.523 51.3944 60.4008 51.6994 60.1479C58.0385 54.7458 64.3996 40.7434 54.4789 26.1251Z" fill="#8EC716"/>
<path d="M30.6687 57.7326C30.8189 57.8638 30.9936 57.9637 31.1826 58.0266C31.3716 58.0895 31.5712 58.1141 31.7698 58.0989C31.9683 58.0838 32.1619 58.0293 32.3393 57.9385C32.5167 57.8477 32.6743 57.7224 32.8031 57.57C32.9319 57.4176 33.0292 57.241 33.0895 57.0505C33.1497 56.86 33.1717 56.6594 33.1541 56.4603C33.1365 56.2613 33.0797 56.0677 32.987 55.8908C32.8942 55.714 32.7675 55.5574 32.6139 55.4301C27.073 50.7203 21.5662 38.3925 30.3759 25.4105C30.4883 25.2466 30.5673 25.0621 30.6084 24.8675C30.6495 24.6729 30.6519 24.4721 30.6154 24.2766C30.579 24.0811 30.5043 23.8947 30.3959 23.7283C30.2874 23.5618 30.1472 23.4185 29.9834 23.3066C29.8195 23.1946 29.6353 23.1163 29.4412 23.0761C29.2471 23.0359 29.047 23.0346 28.8524 23.0722C28.6578 23.1099 28.4725 23.1858 28.3072 23.2955C28.1419 23.4053 27.9999 23.5467 27.8892 23.7117C17.9705 38.3281 24.3296 52.3305 30.6687 57.7326Z" fill="#8EC716"/>
<path d="M31.4848 16.0795C34.2041 17.5146 37.8921 18.5753 41.8688 19.0684C43.4136 19.261 44.9687 19.3584 46.5253 19.3603C52.6519 19.3603 58.0023 17.7501 58.4475 14.1272C58.7062 12.0179 57.1119 9.94078 53.9554 8.27627C51.236 6.8412 47.5481 5.7805 43.5714 5.28739C35.7503 4.31928 27.5562 5.70603 27.0007 10.2306C26.732 12.3359 28.3283 14.415 31.4848 16.0795ZM29.9787 10.5989C30.1111 9.52817 33.2897 8.00455 38.8687 8.00455C40.3156 8.00889 41.7609 8.10232 43.1964 8.28432C46.8201 8.73114 50.1351 9.67711 52.5416 10.9471C54.6513 12.0602 55.5216 13.1611 55.4474 13.7649C55.285 15.0873 50.472 17.102 42.2298 16.0816C38.61 15.6227 35.2951 14.6767 32.8886 13.4067C30.7749 12.2936 29.9045 11.1947 29.9767 10.5969L29.9787 10.5989Z" fill="#8EC716"/>
<path d="M26.4714 71.6306C29.1907 73.0656 32.8786 74.1263 36.8554 74.6194C38.4001 74.8128 39.9552 74.9109 41.5119 74.9133C43.5787 74.9354 45.6409 74.7145 47.6565 74.2551C51.1218 73.4118 53.1714 71.7855 53.4321 69.6762C53.6928 67.5669 52.0965 65.4898 48.9399 63.8253C46.2206 62.3902 42.5327 61.3295 38.556 60.8364C34.5792 60.3433 30.7449 60.4721 27.7608 61.1987C24.2955 62.042 22.246 63.6683 21.9853 65.7776C21.7246 67.8869 23.3149 69.966 26.4714 71.6306ZM24.9653 66.1499C25.0395 65.5461 26.1485 64.6988 28.4647 64.1372C30.2412 63.7349 32.0584 63.5424 33.8793 63.5636C35.3154 63.5669 36.75 63.6583 38.1749 63.8373C41.8007 64.2862 45.1217 65.2342 47.5281 66.5022C49.6378 67.6152 50.5082 68.7162 50.434 69.32C50.3598 69.9238 49.2508 70.7711 46.9345 71.3327C44.2934 71.9767 40.8421 72.0834 37.2163 71.6346C33.5906 71.1858 30.2816 70.2277 27.8752 68.9577C25.7615 67.8446 24.8911 66.7457 24.9633 66.1479L24.9653 66.1499Z" fill="#8EC716"/>
<path d="M92.5114 28.3209C92.3676 28.1846 92.1985 28.0781 92.0137 28.0075C91.8289 27.9368 91.632 27.9034 91.4343 27.9091C91.2367 27.9148 91.042 27.9595 90.8616 28.0407C90.6811 28.1219 90.5184 28.2379 90.3826 28.3822C90.2469 28.5266 90.1408 28.6963 90.0704 28.8818C90 29.0672 89.9667 29.2648 89.9723 29.4632C89.978 29.6616 90.0226 29.8569 90.1035 30.038C90.1844 30.2191 90.3 30.3825 90.4438 30.5187C98.6158 38.2455 99.6687 47.6268 99.6687 54.947C99.6687 75.368 83.116 91.9809 62.7692 91.9809C57.6309 91.9672 52.5515 90.8824 47.8529 88.7953C43.1542 86.7082 38.9387 83.6642 35.4736 79.8563C38.6668 80.2149 41.8913 80.1858 45.0775 79.7698C44.9603 80.0589 44.8807 80.3619 44.8409 80.6715C44.5822 82.7808 46.1765 84.8579 49.333 86.5224C52.0523 87.9575 55.7403 89.0182 59.717 89.5113C61.2617 89.7053 62.8168 89.8041 64.3735 89.8072C66.4403 89.8293 68.5025 89.6084 70.5181 89.149C73.9834 88.3057 76.033 86.6794 76.2937 84.5701C76.5544 82.4608 74.9581 80.3837 71.8016 78.7191C69.0822 77.2841 65.3943 76.2234 61.4176 75.7303C60.4369 75.6095 59.4663 75.529 58.5157 75.4787C63.3994 72.8845 67.6958 69.3049 71.1352 64.9646C74.5746 60.6242 77.0825 55.617 78.5016 50.2574C81.5378 60.3813 76.9655 69.036 72.6157 72.7394C72.3173 73 72.1332 73.3681 72.1032 73.764C72.0733 74.1599 72.1999 74.5517 72.4558 74.8545C72.7116 75.1573 73.076 75.3468 73.47 75.3819C73.8641 75.417 74.256 75.2948 74.561 75.0419C80.1962 70.2456 86.1923 58.262 79.6126 44.9096C79.5896 44.8627 79.5641 44.817 79.5364 44.7728C79.7213 43.2063 79.8144 41.6303 79.8151 40.053C79.8151 34.52 79.2135 27.0347 74.954 19.9842C78.8841 21.3706 82.5533 23.4119 85.8073 26.0223C85.961 26.1506 86.1386 26.2468 86.3298 26.3054C86.521 26.3639 86.7219 26.3836 86.9208 26.3634C87.1196 26.3431 87.3125 26.2833 87.488 26.1873C87.6636 26.0914 87.8183 25.9613 87.9432 25.8047C88.0681 25.6481 88.1606 25.468 88.2154 25.2751C88.2701 25.0821 88.286 24.8802 88.2621 24.681C88.2382 24.4818 88.1749 24.2894 88.0761 24.115C87.9772 23.9407 87.8447 23.7878 87.6864 23.6655C83.1074 19.9952 77.7813 17.3788 72.0843 16.0011C71.3197 15.1001 70.5063 14.2421 69.6477 13.4308C69.5052 13.2898 69.336 13.1787 69.1501 13.1042C68.9642 13.0296 68.7654 12.993 68.5652 12.9966C68.3651 13.0002 68.1676 13.0438 67.9845 13.1249C67.8014 13.2061 67.6362 13.3231 67.4987 13.4691C67.3612 13.6151 67.2542 13.7873 67.1838 13.9753C67.1135 14.1634 67.0812 14.3637 67.089 14.5645C67.0968 14.7653 67.1444 14.9624 67.2291 15.1445C67.3138 15.3265 67.4338 15.4898 67.5822 15.6247C75.7542 23.3515 76.807 32.7327 76.807 40.053C76.807 60.4739 60.2544 77.0868 39.9076 77.0868C19.5607 77.0868 3.00811 60.4739 3.00811 40.053C3.00811 19.632 19.5607 3.01907 39.9076 3.01907C48.2869 2.98624 56.4224 5.84818 62.9477 11.1243C63.2599 11.3655 63.654 11.4741 64.0452 11.4268C64.4363 11.3795 64.7934 11.18 65.0396 10.8713C65.2858 10.5625 65.4014 10.1691 65.3616 9.77566C65.3218 9.38223 65.1297 9.02018 64.8267 8.76737C57.748 3.09938 48.9631 0.00857076 39.9076 0C17.9023 0 0 17.9675 0 40.053C0 59.0389 13.2357 74.9815 30.9234 79.0814C34.5461 83.8804 39.1915 87.8062 44.52 90.572C50.1597 93.4995 56.4198 95.0185 62.7692 95C84.7745 95 102.677 77.0325 102.677 54.947C102.677 47.6429 101.624 36.9353 92.5114 28.3209ZM70.3897 81.392C72.4994 82.5051 73.3698 83.606 73.2956 84.2098C73.2214 84.8136 72.1124 85.661 69.7961 86.2225C67.155 86.8666 63.7037 86.9733 60.0779 86.5245C56.4522 86.0756 53.1433 85.1216 50.7368 83.8516C48.6271 82.7385 47.7567 81.6376 47.8309 81.0338C47.9051 80.43 49.0141 79.5826 51.3304 79.0211C53.1068 78.6188 54.924 78.4263 56.745 78.4474C58.181 78.4508 59.6156 78.5422 61.0405 78.7212C64.6683 79.176 67.9833 80.122 70.3897 81.392Z" fill="#8EC716"/>
<path d="M82.5986 77.4894C82.3002 77.75 82.116 78.1182 82.0861 78.514C82.0562 78.9099 82.1828 79.3017 82.4387 79.6045C82.6945 79.9074 83.0589 80.0968 83.4529 80.1319C83.847 80.167 84.2389 80.0449 84.5439 79.792C92.9044 72.669 101.273 54.1842 88.1777 34.8763C87.9523 34.5477 87.6064 34.322 87.2157 34.2486C86.825 34.1751 86.4212 34.2599 86.0925 34.4844C85.7639 34.7089 85.5372 35.0548 85.462 35.4466C85.3867 35.8383 85.4691 36.244 85.691 36.575C97.6853 54.2487 90.159 71.0488 82.5986 77.4894Z" fill="#8EC716"/>
</g>
<defs>
<clipPath id="clip0">
<rect width="102.677" height="95" fill="white"/>
</clipPath>
</defs>
</svg>
