<svg width="95" height="95" viewBox="0 0 95 95" fill="none" xmlns="http://www.w3.org/2000/svg">
<path d="M7.21265 27.6854H21.889C22.6576 27.6854 23.2806 27.0625 23.2806 26.2938C23.2806 25.5251 22.6576 24.9022 21.889 24.9022H7.21265C6.44411 24.9022 5.82104 25.5251 5.82104 26.2938C5.82104 27.0625 6.44393 27.6854 7.21265 27.6854Z" fill="#8EC716"/>
<path d="M21.3858 34.3849H15.5882C14.8197 34.3849 14.1966 35.0078 14.1966 35.7765C14.1966 36.5452 14.8197 37.1681 15.5882 37.1681H21.3858C22.1543 37.1681 22.7774 36.5452 22.7774 35.7765C22.7774 35.0078 22.1543 34.3849 21.3858 34.3849Z" fill="#8EC716"/>
<path d="M1.3916 44.0352H15.5882C16.3567 44.0352 16.9798 43.4123 16.9798 42.6436C16.9798 41.8748 16.3567 41.252 15.5882 41.252H1.3916C0.623066 41.252 0 41.8748 0 42.6436C0 43.4123 0.623066 44.0352 1.3916 44.0352Z" fill="#8EC716"/>
<path d="M23.2806 68.7059C23.2806 67.9372 22.6576 67.3143 21.889 67.3143H7.21265C6.44411 67.3143 5.82104 67.9372 5.82104 68.7059C5.82104 69.4747 6.44411 70.0975 7.21265 70.0975H21.889C22.6576 70.0975 23.2806 69.4747 23.2806 68.7059Z" fill="#8EC716"/>
<path d="M21.3858 57.8318H15.5882C14.8197 57.8318 14.1966 58.4547 14.1966 59.2234C14.1966 59.9921 14.8197 60.615 15.5882 60.615H21.3858C22.1543 60.615 22.7774 59.9921 22.7774 59.2234C22.7774 58.4547 22.1543 57.8318 21.3858 57.8318Z" fill="#8EC716"/>
<path d="M16.9798 52.3563C16.9798 51.5876 16.3567 50.9647 15.5882 50.9647H1.3916C0.623066 50.9647 0 51.5876 0 52.3563C0 53.125 0.623066 53.7479 1.3916 53.7479H15.5882C16.3567 53.7479 16.9798 53.125 16.9798 52.3563Z" fill="#8EC716"/>
<path d="M59.2875 30.7692C60.0563 30.7692 60.6791 30.1463 60.6791 29.3776V27.2534C60.6791 26.4847 60.0563 25.8618 59.2875 25.8618C58.5188 25.8618 57.8959 26.4847 57.8959 27.2534V29.3776C57.8959 30.1463 58.5188 30.7692 59.2875 30.7692Z" fill="#8EC716"/>
<path d="M74.5879 32.1995C74.0442 31.6562 73.1633 31.6562 72.6198 32.1995L71.1178 33.7015C70.5743 34.2451 70.5743 35.1261 71.1178 35.6695C71.6616 36.213 72.5424 36.2128 73.0859 35.6695L74.5879 34.1675C75.1312 33.6241 75.1312 32.7431 74.5879 32.1995Z" fill="#8EC716"/>
<path d="M77.41 46.1084C76.6413 46.1084 76.0184 46.7313 76.0184 47.5C76.0184 48.2687 76.6413 48.8916 77.41 48.8916H79.534C80.3027 48.8916 80.9256 48.2687 80.9256 47.5C80.9256 46.7313 80.3027 46.1084 79.534 46.1084H77.41Z" fill="#8EC716"/>
<path d="M73.0859 59.3303C72.5422 58.787 71.6613 58.787 71.1178 59.3303C70.5743 59.874 70.5743 60.7549 71.1178 61.2984L72.6198 62.8004C73.1636 63.3439 74.0444 63.3437 74.5879 62.8004C75.1314 62.2568 75.1314 61.3758 74.5879 60.8323L73.0859 59.3303Z" fill="#8EC716"/>
<path d="M57.8959 65.6223V67.7463C57.8959 68.515 58.5188 69.1379 59.2875 69.1379C60.0563 69.1379 60.6791 68.515 60.6791 67.7463V65.6223C60.6791 64.8536 60.0563 64.2307 59.2875 64.2307C58.5188 64.2307 57.8959 64.8538 57.8959 65.6223Z" fill="#8EC716"/>
<path d="M45.4891 59.3303L43.9871 60.8323C43.4436 61.376 43.4436 62.2569 43.9871 62.8004C44.5307 63.3439 45.4117 63.3437 45.955 62.8004L47.457 61.2984C48.0004 60.7548 48.0004 59.8738 47.457 59.3303C46.9137 58.787 46.0325 58.787 45.4891 59.3303Z" fill="#8EC716"/>
<path d="M39.0411 46.1084C38.2725 46.1084 37.6495 46.7313 37.6495 47.5C37.6495 48.2687 38.2725 48.8916 39.0411 48.8916H41.1652C41.9338 48.8916 42.5568 48.2687 42.5568 47.5C42.5568 46.7313 41.9338 46.1084 41.1652 46.1084H39.0411Z" fill="#8EC716"/>
<path d="M47.4572 33.7015L45.9552 32.1995C45.4117 31.6562 44.5305 31.6562 43.9873 32.1995C43.4438 32.7431 43.4438 33.6241 43.9873 34.1675L45.4893 35.6695C46.0329 36.213 46.9139 36.2128 47.4572 35.6695C48.0006 35.1261 48.0006 34.2451 47.4572 33.7015Z" fill="#8EC716"/>
<path d="M66.7706 47.4998C66.7706 46.7311 66.1478 46.1082 65.379 46.1082H60.6791V35.7762C60.6791 35.0075 60.0563 34.3846 59.2875 34.3846C58.5188 34.3846 57.8959 35.0075 57.8959 35.7762V47.4998C57.8959 48.2685 58.5188 48.8914 59.2875 48.8914H65.379C66.1476 48.8914 66.7706 48.2685 66.7706 47.4998Z" fill="#8EC716"/>
<path d="M85.6746 47.2704C86.4418 47.2238 87.026 46.5642 86.9794 45.7971C86.0941 31.194 73.9304 19.7549 59.2874 19.7549C43.9887 19.7549 31.5422 32.2014 31.5422 47.5003C31.5422 62.799 43.9887 75.2455 59.2874 75.2455C72.9936 75.2455 84.6888 65.2033 86.7233 51.6519C86.8374 50.8919 86.3138 50.1833 85.5536 50.0692C84.7955 49.9554 84.085 50.4785 83.9709 51.2389C82.1433 63.4133 71.6309 72.4624 59.2874 72.4624C45.5234 72.4624 34.3254 61.2645 34.3254 47.5005C34.3254 33.7364 45.5234 22.5383 59.2874 22.5383C72.4615 22.5383 83.4048 32.8289 84.2012 45.966C84.2476 46.7327 84.9066 47.3149 85.6746 47.2704Z" fill="#8EC716"/>
<path d="M59.2874 11.7876C54.3925 11.7876 49.5967 12.8031 45.1825 14.7022H20.6293C19.8607 14.7022 19.2377 15.325 19.2377 16.0938C19.2377 16.8625 19.8607 17.4854 20.6293 17.4854H39.9471C37.3352 19.1664 34.9307 21.1941 32.8106 23.5349C32.2948 24.1044 32.3382 24.9844 32.9078 25.5004C33.4777 26.0164 34.3573 25.9728 34.8735 25.4032C41.1083 18.5191 50.0069 14.5708 59.2874 14.5708C77.4447 14.5708 92.2168 29.3427 92.2168 47.5C92.2168 65.657 77.4449 80.4292 59.2874 80.4292C41.1302 80.4292 26.3582 65.6572 26.3582 47.5C26.3582 41.1417 28.1745 34.9704 31.6105 29.653C32.0276 29.0075 31.8424 28.1462 31.1969 27.729C30.5514 27.3121 29.6901 27.4969 29.2728 28.1426C25.5452 33.9109 23.575 40.6045 23.575 47.5C23.575 60.0738 30.1074 71.1494 39.956 77.5146H20.6295C19.8609 77.5146 19.2379 78.1375 19.2379 78.9062C19.2379 79.6749 19.8609 80.2978 20.6295 80.2978H45.1634C49.4978 82.1716 54.2732 83.2124 59.2876 83.2124C78.9793 83.2124 95 67.1919 95 47.5C95 27.8081 78.9793 11.7876 59.2874 11.7876Z" fill="#8EC716"/>
</svg>
