<svg width="95" height="95" viewBox="0 0 95 95" fill="none" xmlns="http://www.w3.org/2000/svg">
<path d="M47.3343 12.0717C48.3663 12.0717 49.2029 11.235 49.2029 10.203V1.86864C49.2029 0.836631 48.3663 0 47.3343 0C46.3023 0 45.4656 0.836631 45.4656 1.86864V10.203C45.4658 11.235 46.3025 12.0717 47.3343 12.0717Z" fill="#8EC716"/>
<path d="M93.0109 64.1965L89.7099 60.9048C88.5356 59.7319 86.9705 59.0858 85.3028 59.0858C84.2364 59.0858 83.2128 59.3512 82.3056 59.8482L76.085 53.635L76.388 53.3324C78.9116 50.8038 78.9107 46.6948 76.3878 44.1747C75.4862 43.2715 74.3613 42.6692 73.135 42.4158C73.3038 41.8329 73.3927 41.2225 73.3927 40.5978C73.3927 38.862 72.7184 37.2344 71.4979 36.0188C70.5961 35.1156 69.4714 34.5133 68.2451 34.2599C68.4139 33.677 68.5028 33.0668 68.5028 32.4419C68.5028 30.7059 67.8285 29.0785 66.606 27.8611C65.6827 26.9389 64.5477 26.3552 63.3559 26.1067C63.9935 23.9086 63.4487 21.4354 61.7194 19.7031C60.2799 18.2698 58.3267 17.6538 56.4443 17.8534L44.1175 15.5202C42.2375 15.1636 39.8898 14.9277 38.4078 16.2794C38.3143 16.3648 38.219 16.4629 38.1251 16.5722C35.8273 15.7347 33.1472 16.2334 31.3072 18.0714C30.0864 19.2907 29.414 20.9175 29.414 22.6524C29.414 23.2773 29.5025 23.8876 29.6712 24.4706C28.4462 24.7239 27.3227 25.3254 26.4241 26.2257C25.201 27.4438 24.5265 29.0688 24.5252 30.8016C24.5247 31.428 24.6135 32.0403 24.7831 32.6248C23.5576 32.8775 22.4334 33.478 21.532 34.3782C20.3089 35.6001 19.6353 37.2279 19.6353 38.9618C19.6353 40.2899 20.0318 41.5552 20.7666 42.6239C19.8389 42.9384 18.9891 43.4619 18.2775 44.1727C15.7522 46.6948 15.7513 50.804 18.2792 53.3363L18.5811 53.6369L12.3597 59.847C10.0476 58.7583 7.19886 59.1662 5.29088 61.0717L1.98778 64.3656C0.812896 65.539 0.166079 67.1042 0.165894 68.7729C0.165894 70.4417 0.812896 72.0071 1.98778 73.1807L6.11007 77.298C6.8402 78.0274 8.02343 78.0266 8.75263 77.2965C9.48202 76.5664 9.48127 75.3832 8.75115 74.654L4.62885 70.5367C4.1609 70.0693 3.90318 69.4429 3.90318 68.7731C3.90318 68.1034 4.1609 67.4772 4.62774 67.0109L7.93103 63.7169C8.75634 62.8925 10.0195 62.7697 10.9788 63.3432C11.0464 63.4447 11.1245 63.5412 11.2139 63.6308C11.374 63.7913 11.5568 63.9143 11.7509 64.0043L30.6939 82.9195C30.7839 83.1156 30.9075 83.3003 31.0687 83.4617C31.2257 83.6188 31.4048 83.7404 31.5948 83.8298C31.9953 84.2827 32.2167 84.8613 32.2167 85.4784C32.2167 86.1482 31.959 86.7744 31.491 87.2418L28.1911 90.5379C27.216 91.5087 25.63 91.5085 24.6579 90.5409L20.5356 86.4182C19.8058 85.6884 18.6228 85.6884 17.893 86.4182C17.1633 87.1479 17.1633 88.331 17.893 89.0607L22.0183 93.1864C23.2325 94.3956 24.8271 94.9999 26.4224 94.9999C28.0182 94.9999 29.6146 94.3947 30.8303 93.1843L34.1323 89.8862C35.3072 88.7127 35.9542 87.1474 35.9542 85.4784C35.9542 84.2874 35.623 83.15 35.0071 82.1692L42.0089 75.1759C42.0164 75.1683 42.0238 75.1607 42.0314 75.1531C42.8331 74.3242 45.0658 74.4794 47.225 74.6293C48.7591 74.736 50.4695 74.8545 52.1405 74.6619L59.8081 82.3204C59.3114 83.226 59.0462 84.2484 59.0462 85.3131C59.0462 86.9802 59.6932 88.5446 60.8681 89.7181L64.1703 93.0162C65.3444 94.1891 66.9095 94.8352 68.5772 94.8352C70.2447 94.8352 71.8098 94.1893 72.9841 93.0162L93.0122 73.0124C94.1871 71.839 94.8341 70.2738 94.8341 68.6049C94.8339 66.9363 94.1869 65.371 93.0109 64.1965ZM43.4217 19.1921L51.5277 20.7264L46.6758 25.5764C45.9253 25.2157 44.8966 24.5429 43.7681 23.4634C42.2234 21.9857 41.1185 20.2796 41.0179 19.2155C41.0177 19.215 41.0177 19.2144 41.0177 19.2139C41.0177 19.2137 41.0176 19.2135 41.0176 19.2133C41.0103 19.1369 41.0085 19.0758 41.0094 19.0292C41.2538 18.9699 41.9028 18.904 43.4217 19.1921ZM33.948 20.7157C34.8947 19.7699 36.3653 19.6608 37.435 20.3852C38.0412 22.9268 40.2093 25.2304 41.1847 26.1637C41.9076 26.8554 44.2272 28.9293 46.5684 29.4993C46.8851 29.9533 47.0575 30.4945 47.0575 31.0657C47.0575 31.8014 46.7745 32.4892 46.2589 33.0043C45.7447 33.5193 45.0558 33.8028 44.3188 33.8028C43.5816 33.8028 42.8927 33.5193 42.3761 33.0018L42.376 33.0017L42.375 33.0007L33.9479 24.5888C33.4341 24.0757 33.1511 23.3879 33.1511 22.6524C33.1513 21.9167 33.4343 21.2289 33.948 20.7157ZM29.0652 28.8699C29.5793 28.355 30.2675 28.0713 31.0034 28.0713C31.7402 28.0713 32.4306 28.3556 32.9481 28.8725L39.734 35.6448C40.8025 36.715 40.8025 38.4565 39.7377 39.5231C39.2207 40.038 38.5294 40.3215 37.7911 40.3215C37.0528 40.3215 36.3615 40.038 35.8467 39.5253L35.8466 39.5251L30.6986 34.3782C30.6906 34.3703 30.6819 34.3628 30.6737 34.3547L29.0631 32.7449C28.5464 32.2287 28.262 31.5395 28.2625 30.8044C28.2633 30.0717 28.5468 29.3861 29.0652 28.8699ZM24.1731 37.0225C24.6876 36.5087 25.3773 36.2257 26.1154 36.2257C26.8473 36.2257 27.5311 36.5046 28.0434 37.0095L33.2072 42.1708C33.722 42.6837 34.0057 43.3708 34.0057 44.1055C34.0057 44.8401 33.722 45.5272 33.2051 46.0421C32.6908 46.5557 32.0018 46.8386 31.265 46.8386C30.5271 46.8386 29.836 46.5549 29.3209 46.0421L27.4489 44.1723C27.4485 44.1718 27.448 44.1714 27.4476 44.171L24.1732 40.9006C23.6571 40.3849 23.3728 39.6962 23.3728 38.9614C23.3728 38.2268 23.6571 37.5379 24.1731 37.0225ZM20.9186 46.8167C21.4353 46.3005 22.1259 46.0163 22.8631 46.0163C23.6001 46.0163 24.2905 46.3004 24.8071 46.8162L26.6817 48.6885C27.1967 49.2014 27.4802 49.8885 27.4802 50.6232C27.4802 51.358 27.1966 52.0449 26.6778 52.5618C26.1636 53.0767 25.4747 53.3604 24.7377 53.3604C24.0005 53.3604 23.3116 53.0769 22.7937 52.5581L22.559 52.3243C22.5558 52.3212 22.5534 52.3178 22.5505 52.3149C22.5469 52.3115 22.5432 52.3086 22.5397 52.3052L20.9204 50.6923C19.8519 49.6215 19.8509 47.8831 20.9186 46.8167ZM58.9991 68.0541C58.2697 67.3237 57.0865 67.3232 56.3565 68.0524L54.694 69.7128C53.1143 71.2926 50.2519 71.0937 47.4837 70.9016C44.4776 70.6927 41.3692 70.4771 39.3577 72.5423L32.4748 79.4168L15.2629 62.2301L21.354 56.1499C22.3608 56.7671 23.5225 57.0979 24.7381 57.0979C26.4746 57.0979 28.1029 56.4247 29.3192 55.2062C30.5436 53.9868 31.2181 52.3594 31.2181 50.6234C31.2181 50.6073 31.217 50.5913 31.217 50.5752C31.2331 50.5754 31.2493 50.5763 31.2654 50.5763C32.9995 50.5763 34.6266 49.9052 35.8445 48.6887C37.0689 47.4693 37.7434 45.8417 37.7434 44.1059C37.7434 44.0898 37.7423 44.0738 37.7423 44.0577C37.7586 44.0577 37.7749 44.0588 37.7915 44.0588C39.525 44.0588 41.153 43.3884 42.3791 42.1673C43.652 40.8924 44.2815 39.214 44.2695 37.539C44.2862 37.5392 44.3029 37.5401 44.3196 37.5401C46.0561 37.5399 47.6843 36.867 48.9024 35.6466C50.1231 34.4274 50.7955 32.8005 50.7955 31.0657C50.7955 29.8524 50.4656 28.6925 49.8505 27.6878L55.1893 22.3513C55.5871 21.9551 56.0777 21.7065 56.5918 21.6039C56.6475 21.5979 56.7024 21.589 56.7568 21.5783C57.5817 21.4645 58.448 21.7191 59.0789 22.3474C60.1474 23.4178 60.1474 25.1593 59.0828 26.2259L57.4568 27.8451C57.4514 27.8505 57.4457 27.8553 57.4403 27.8607L55.5676 29.7303C54.8373 30.4595 54.8365 31.6427 55.5659 32.3728C56.2955 33.1032 57.4785 33.1037 58.2085 32.3745L59.8409 30.7443C59.8413 30.7439 59.8417 30.7436 59.842 30.7432L60.0888 30.4973C61.1603 29.4356 62.8963 29.4379 63.9667 30.5068C64.4818 31.0196 64.7655 31.7067 64.7655 32.4415C64.7655 33.1761 64.4818 33.8632 63.9627 34.3801L62.3274 36.0187C62.3272 36.0188 62.3271 36.019 62.3269 36.0194L60.4543 37.8843C59.7231 38.6126 59.7207 39.7958 60.449 40.5269C61.1772 41.2581 62.3603 41.2604 63.0915 40.5323L64.9726 38.6588C65.4867 38.1437 66.1757 37.8602 66.9127 37.8602C67.6498 37.8602 68.339 38.1437 68.8568 38.6625C69.3719 39.1755 69.6554 39.8626 69.6554 40.5974C69.6554 41.332 69.3719 42.0191 68.8539 42.5349L65.5938 45.7962C64.8642 46.5262 64.8644 47.7092 65.5942 48.4388C65.9591 48.8036 66.4371 48.9858 66.9153 48.9858C67.3936 48.9858 67.8719 48.8032 68.2367 48.4382L69.8345 46.8399C69.8436 46.8312 69.8534 46.8236 69.8625 46.8145C70.3766 46.2994 71.0656 46.0159 71.8026 46.0159C72.5397 46.0159 73.2287 46.2994 73.7447 46.8164C74.8121 47.8827 74.8112 49.6213 73.7447 50.6897L72.1202 52.3123C72.1197 52.3128 72.1189 52.3134 72.1184 52.3139C72.1178 52.3145 72.1173 52.3152 72.1167 52.3158L69.5383 54.891C68.8082 55.6204 68.8075 56.8036 69.5367 57.5337C69.9016 57.8991 70.3804 58.0818 70.8589 58.0818C71.3367 58.0818 71.8146 57.8996 72.1794 57.5354L73.4406 56.2757L79.4851 62.3132L62.2747 79.5027L56.1083 73.3436C56.5382 73.0672 56.9495 72.7421 57.3357 72.356L58.9972 70.6964C59.7277 69.9674 59.7285 68.7842 58.9991 68.0541ZM90.371 70.3682L70.3429 90.372C69.8744 90.84 69.2472 91.0977 68.577 91.0977C67.9068 91.0977 67.2797 90.84 66.811 90.3718L63.5088 87.0737C63.0409 86.6065 62.7831 85.9812 62.7831 85.3131C62.7831 84.6451 63.0409 84.0198 63.5088 83.5524L83.5369 63.5486C84.0056 63.0805 84.6326 62.8228 85.303 62.8228C85.9732 62.8228 86.6003 63.0805 87.0701 63.5497L90.3712 66.8415C90.8391 67.3089 91.0968 67.9349 91.0968 68.6048C91.0967 69.2748 90.8389 69.901 90.371 70.3682Z" fill="#8EC716"/>
<path d="M22.5213 10.4964C22.8861 10.8604 23.3637 11.0422 23.8412 11.0422C24.32 11.0422 24.7989 10.8593 25.1638 10.4936C25.8928 9.76308 25.8917 8.58003 25.1612 7.85102L18.352 1.05537C17.6217 0.326352 16.4385 0.32728 15.7095 1.05796C14.9805 1.78846 14.9816 2.97151 15.7121 3.70052L22.5213 10.4964Z" fill="#8EC716"/>
<path d="M70.8273 11.0422C71.3051 11.0422 71.7831 10.86 72.1479 10.4957L78.9519 3.69989C79.682 2.9707 79.6827 1.78746 78.9534 1.05734C78.2242 0.32721 77.0411 0.326468 76.3108 1.05585L69.5068 7.85169C68.7767 8.58089 68.7759 9.76412 69.5053 10.4943C69.8703 10.8596 70.3488 11.0422 70.8273 11.0422Z" fill="#8EC716"/>
<path d="M11.6559 80.3796C10.9324 81.1154 10.9425 82.2987 11.6785 83.0221L11.6839 83.0273C12.047 83.3843 12.5185 83.562 12.9898 83.562C13.4735 83.562 13.9572 83.3748 14.3237 83.0021C15.0471 82.2662 15.0343 81.0804 14.2984 80.3569C13.5627 79.6335 12.3797 79.6437 11.6559 80.3796Z" fill="#8EC716"/>
<path d="M63.5695 65.3619C63.8537 65.3619 64.1421 65.2972 64.4128 65.1608C65.3342 64.696 65.7044 63.5723 65.2398 62.6509C64.775 61.7295 63.6511 61.3591 62.7299 61.8239L62.7195 61.8291C61.7981 62.2939 61.4331 63.415 61.8977 64.3364C62.2258 64.9873 62.8856 65.3619 63.5695 65.3619Z" fill="#8EC716"/>
</svg>
