<svg width="168" height="162" viewBox="0 0 168 162" fill="none" xmlns="http://www.w3.org/2000/svg">
<g clip-path="url(#clip0)">
<path d="M143.286 23.7245C127.434 8.42558 106.358 0 83.9399 0C74.6079 0 65.4411 1.46844 56.6942 4.36451C55.4114 4.78912 54.7278 6.13733 55.1681 7.37543C55.6084 8.61384 57.0053 9.27387 58.2879 8.84798C66.5207 6.12214 75.1514 4.7404 83.9399 4.7404C105.046 4.7404 124.889 12.6727 139.813 27.0761C154.737 41.4799 162.956 60.6301 162.956 81C162.956 101.37 154.737 120.52 139.813 134.924C124.889 149.328 105.046 157.26 83.9399 157.26C62.8341 157.26 42.9911 149.328 28.067 134.924C13.143 120.52 4.92394 101.37 4.92394 81C4.92394 66.6776 9.06034 52.7202 16.8863 40.637C24.5011 28.8793 35.2786 19.3365 48.0529 13.0404C49.2607 12.4449 49.74 11.0173 49.123 9.85162C48.5064 8.68567 47.0271 8.22403 45.819 8.81856C32.2526 15.5052 20.8073 25.639 12.7214 38.1241C4.40694 50.962 0.012207 65.7881 0.012207 81C0.012207 102.636 8.74233 122.977 24.5942 138.276C40.446 153.575 61.522 162 83.9399 162C106.358 162 127.434 153.574 143.286 138.276C159.138 122.977 167.868 102.636 167.868 81C167.868 59.3641 159.138 39.0233 143.286 23.7245Z" fill="#4A9312"/>
<path d="M34.3509 88.1305C32.7543 89.992 32.1069 92.421 32.5744 94.7947C34.707 105.619 40.3416 114.766 49.3222 121.984C58.9877 129.751 71.2817 134.029 83.9401 134.029C96.5984 134.029 108.893 129.751 118.558 121.984C127.538 114.767 133.173 105.619 135.306 94.7947C135.774 92.4207 135.126 89.992 133.529 88.1305C131.933 86.2691 129.582 85.2022 127.08 85.2022H40.8003C38.2975 85.2019 35.9469 86.2691 34.3509 88.1305ZM129.746 91.1528C130.407 91.923 130.674 92.9273 130.481 93.9087C128.903 101.918 125.175 108.908 119.389 114.756C118.213 111.977 116.422 109.473 114.088 107.384C113.094 106.494 111.54 106.55 110.618 107.509C109.695 108.469 109.754 109.969 110.748 110.859C113.028 112.901 114.643 115.452 115.468 118.297C115.45 118.312 115.433 118.327 115.415 118.341C106.63 125.401 95.4523 129.289 83.9401 129.289C74.7861 129.289 65.8448 126.828 58.149 122.272C56.619 121.366 55.1378 120.375 53.7245 119.315C53.2996 118.997 52.8786 118.673 52.4642 118.34C52.4613 118.337 52.4583 118.335 52.4551 118.332C52.4406 118.321 52.4272 118.309 52.4131 118.297C54.412 111.423 60.9619 106.562 68.4843 106.562C72.9793 106.562 77.195 108.263 80.3554 111.351C81.3098 112.284 82.5831 112.798 83.9404 112.798C85.2977 112.798 86.571 112.284 87.5254 111.351C90.6858 108.263 94.9015 106.562 99.3965 106.562C100.234 106.562 101.074 106.623 101.894 106.741C103.237 106.936 104.485 106.043 104.686 104.748C104.887 103.453 103.962 102.247 102.621 102.053C101.562 101.9 100.477 101.822 99.3965 101.822C93.5783 101.822 88.1211 104.023 84.0309 108.02C84.0194 108.031 83.9929 108.057 83.9401 108.057C83.8876 108.057 83.8611 108.031 83.8496 108.02C79.7594 104.023 74.3022 101.822 68.4839 101.822C59.5948 101.822 51.7594 107.071 48.4937 114.759C42.706 108.91 38.9778 101.92 37.3995 93.9087C37.2061 92.9273 37.474 91.923 38.1342 91.1528C38.7942 90.3833 39.7656 89.9423 40.7999 89.9423H127.08C128.114 89.9423 129.086 90.3837 129.746 91.1528Z" fill="#4A9312"/>
<path d="M56.5432 49.6106C51.4056 49.6106 47.2256 53.6448 47.2256 58.6032V67.3221C47.2256 68.6314 48.3252 69.6923 49.6815 69.6923C51.0377 69.6923 52.1373 68.6314 52.1373 67.3221V58.6032C52.1373 56.2583 54.1139 54.3507 56.5432 54.3507C58.9728 54.3507 60.9494 56.2583 60.9494 58.6032V67.3221C60.9494 68.6314 62.049 69.6923 63.4053 69.6923C64.7616 69.6923 65.8611 68.6314 65.8611 67.3221V58.6032C65.8608 53.6448 61.6808 49.6106 56.5432 49.6106Z" fill="#4A9312"/>
<path d="M115.569 69.6923C116.925 69.6923 118.025 68.6314 118.025 67.3221V58.6032C118.025 53.6448 113.845 49.6106 108.707 49.6106C103.569 49.6106 99.3896 53.6448 99.3896 58.6032V67.3221C99.3896 68.6314 100.489 69.6923 101.846 69.6923C103.202 69.6923 104.301 68.6314 104.301 67.3221V58.6032C104.301 56.2583 106.278 54.3507 108.708 54.3507C111.137 54.3507 113.113 56.2583 113.113 58.6032V67.3221C113.113 68.6314 114.213 69.6923 115.569 69.6923Z" fill="#4A9312"/>
</g>
<defs>
<clipPath id="clip0">
<rect width="167.855" height="162" fill="white" transform="translate(0.012207)"/>
</clipPath>
</defs>
</svg>
