<svg width="144" height="112" viewBox="0 0 144 112" fill="none" xmlns="http://www.w3.org/2000/svg">
<g clip-path="url(#clip0)">
<path fill-rule="evenodd" clip-rule="evenodd" d="M120.488 29.9792C120.225 29.649 119.839 29.4393 119.418 29.3978C119.367 29.3928 119.315 29.3902 119.264 29.3902C118.896 29.3902 118.538 29.5197 118.255 29.7587L117.361 30.5115C117.23 30.0561 117.001 29.6302 116.683 29.2602C116.258 28.7664 115.711 28.416 115.1 28.237C115.705 27.6265 116.08 26.8365 116.162 25.9815C116.256 25.0022 115.958 24.0572 115.324 23.3207C114.651 22.539 113.666 22.0905 112.62 22.0905C112.346 22.0905 112.074 22.1216 111.809 22.1815C112.786 20.3618 112.344 18.0572 110.671 16.7766C109.931 16.2097 109.046 15.9101 108.111 15.9101C107.244 15.9101 106.42 16.1666 105.722 16.635C105.76 16.4619 105.79 16.2857 105.81 16.1064C105.974 14.6939 105.588 13.3018 104.725 12.1866C103.854 11.0601 102.601 10.3505 101.199 10.1884C101 10.1656 100.799 10.1539 100.6 10.1539C97.9248 10.1539 95.6718 12.1937 95.3593 14.8986C95.196 16.3111 95.5813 17.7032 96.444 18.8185C97.3155 19.945 98.5679 20.6546 99.9707 20.8167C100.169 20.8396 100.37 20.8512 100.569 20.8512H100.569C101.792 20.8512 102.925 20.4245 103.826 19.7041C103.783 20.0516 103.782 20.4063 103.826 20.7617C103.912 21.4624 104.164 22.1135 104.556 22.6726C102.413 21.4804 99.9735 20.8549 97.412 20.8549C93.5255 20.8549 89.5758 22.3478 87.3497 24.6582C83.2913 28.8703 81.8386 33.9627 82.4925 41.6859C82.705 44.1949 82.8915 46.4832 83.0486 48.458C83.0253 48.4512 83.0023 48.4436 82.9785 48.4378C79.5093 47.5927 75.4342 46.3015 73.5829 45.6982C73.4194 44.8091 73.0223 44.0684 72.6566 43.5412C75.7889 35.5452 76.4905 28.1596 76.6468 25.4302C84.3654 22.6794 92.9397 19.5975 93.0292 19.5653C93.4312 19.4208 93.7569 19.1183 93.9305 18.728C94.1043 18.3376 94.111 17.8932 93.9493 17.4978L93.4005 16.1565C93.2425 15.7703 92.937 15.4631 92.5517 15.3029C92.3592 15.223 92.1547 15.183 91.9505 15.183C91.7456 15.183 91.5406 15.2232 91.3479 15.3036C86.6231 17.2722 79.9851 19.4913 76.7424 20.5468C76.399 16.5314 75.0116 11.3622 69.774 6.62599C66.122 3.32356 60.1152 2.63035 55.7196 2.63035C52.4945 2.63035 50.0847 2.99285 49.9837 3.00827C49.5321 3.0773 49.1506 3.33588 48.9132 3.69567C48.227 1.53836 46.2457 0 43.9065 0C43.8364 0 43.7661 0.0014543 43.6955 0.00426595C42.2844 0.0610806 40.9824 0.67528 40.0293 1.73343C39.0856 2.78121 38.5976 4.14069 38.6548 5.56134C38.6621 5.74245 38.6782 5.92114 38.7024 6.09691C37.9562 5.5117 37.0316 5.18196 36.0578 5.18196C35.2382 5.18196 34.4426 5.41873 33.7571 5.86665C31.9944 7.01826 31.3811 9.28203 32.2182 11.1691C31.8737 11.0643 31.5127 11.01 31.144 11.01C30.1895 11.01 29.2964 11.3775 28.629 12.0449C27.9415 12.7322 27.5744 13.6524 27.5948 14.6359C27.6128 15.4949 27.9275 16.3109 28.486 16.9649C26.9834 17.2883 25.8536 18.6267 25.8536 20.2246C25.8536 21.5766 26.6629 22.7424 27.8221 23.2653C27.512 23.5731 27.2779 23.9578 27.1496 24.3855C26.9481 25.0571 27.0121 25.7768 27.3298 26.4119C27.7925 27.3377 28.7466 27.9359 29.7605 27.936H29.7607C30.1631 27.936 30.5659 27.8409 30.9254 27.6612C31.1888 27.5294 31.4196 27.3578 31.6159 27.1578C31.7059 27.9833 31.8389 28.6792 31.9596 29.1983C32.2505 30.4492 32.753 31.6171 33.354 32.6687C33.277 32.6571 33.1992 32.6491 33.1204 32.6491C33.0522 32.6491 32.9836 32.6535 32.915 32.6625C32.8866 32.6663 30.0414 33.0376 27.1223 33.0376C25.5338 33.0376 24.2403 32.9296 23.2778 32.7166C20.43 32.0864 18.9972 30.8435 19.0191 29.0223C19.043 27.042 21.5949 20.8076 24.0748 18.908C24.4364 18.6311 24.6595 18.2105 24.6861 17.7558C24.7127 17.301 24.5401 16.8573 24.2133 16.5401L23.1769 15.5342C22.8841 15.2499 22.4925 15.0916 22.0858 15.0916C22.0666 15.0916 22.0472 15.092 22.0281 15.0927C21.6009 15.1083 21.1987 15.298 20.9147 15.6174C20.6376 15.9292 14.1339 23.326 14.672 29.7141C15.2488 36.563 22.5053 37.3551 27.9133 37.3551C29.7298 37.3551 31.7846 37.2577 34.1949 37.0574C34.7609 37.0104 35.2571 36.6607 35.4919 36.1435C35.5506 36.0138 35.5907 35.8788 35.6124 35.742C36.6216 36.8429 37.5689 37.6023 38.089 37.907L55.4638 48.088C55.7076 48.2309 55.9814 48.303 56.2559 48.303C56.4872 48.303 56.7191 48.2518 56.934 48.1486C57.4035 47.9232 57.7305 47.479 57.806 46.9635C57.8145 46.9054 58.6731 41.0566 59.9974 32.8105C61.2263 25.1577 60.158 19.971 56.4255 15.4678C54.151 12.7237 49.7649 10.88 45.5112 10.88C43.3757 10.88 41.2954 11.3356 39.4122 12.205C40.0809 11.3862 40.4117 10.345 40.3618 9.29958C41.2985 10.1701 42.5453 10.6988 43.9154 10.6988H43.9156C43.9856 10.6988 44.0559 10.6974 44.1264 10.6945C46.3875 10.6034 48.2607 9.06582 48.9188 6.99461C48.9904 7.09437 49.073 7.18696 49.1678 7.2686C49.454 7.51486 49.8172 7.64778 50.1898 7.64778C50.2674 7.64778 50.3454 7.64206 50.4232 7.63033C52.3539 7.33947 54.2166 7.19191 55.9597 7.19191C63.3708 7.19191 66.5905 9.8588 66.7489 9.99454C66.763 10.0082 66.763 10.0074 66.7824 10.0243C69.4382 12.3382 71.1827 15.2376 71.9673 18.6418C72.3106 20.1311 72.3866 21.4017 72.3892 22.2135C68.6721 23.4588 62.1727 25.4926 62.101 25.515C61.3548 25.7485 60.8943 26.493 61.0227 27.2643C61.0439 27.408 61.0628 27.9448 61.0629 28.4127C61.063 28.9137 61.3027 29.3846 61.7079 29.6794C61.9792 29.8768 62.3026 29.9792 62.6297 29.9792C62.7913 29.9792 62.9539 29.9542 63.1117 29.9033L72.1343 26.9856C71.5584 32.9706 69.5973 39.109 68.7488 41.5551C68.7043 41.5543 68.5768 41.5534 68.5768 41.5534C64.9984 41.5534 63.6536 44.4902 63.6228 46.4642C63.6161 46.8954 63.666 47.2999 63.7379 47.653C59.2972 50.6929 53.8389 52.783 50.8162 53.9403C50.2464 54.1586 49.7544 54.3469 49.3726 54.5025C45.8704 55.9294 45.1354 58.1844 45.1354 59.8247C45.1354 60.5916 45.4228 62.6737 48.0846 65.438C50.7999 68.2579 55.1374 70.9174 60.9765 73.3424C70.0702 77.1193 76.6171 78.6388 79.7634 79.3691C80.2207 79.4752 80.6871 79.5835 81.0353 79.6715C81.5974 81.1404 83.1268 83.0491 85.8718 83.0491C89.1617 83.0491 90.8829 80.5435 90.8829 78.0683C90.8829 75.57 89.1702 73.0308 85.8966 73.0112L85.8623 73.0111C83.7876 73.0111 82.3993 74.1164 81.6143 75.1981C78.8955 74.7729 75.7473 74.1194 64.8263 70.0174C58.3853 67.5979 54.6797 65.0819 52.7056 63.3972C50.4251 61.4513 49.7535 60.0359 49.6635 59.6619C49.8333 59.3609 50.7114 58.8338 51.4624 58.5888C51.478 58.5838 51.4935 58.5786 51.5091 58.5731C58.4836 56.0999 64.2495 52.5408 66.4089 51.1229C66.9408 51.343 67.6573 51.5002 68.6197 51.5002C70.2417 51.5002 71.4916 50.6006 72.2454 49.8602C75.5436 50.9225 81.9055 52.7805 82.1991 52.8662C82.3434 52.9082 82.4911 52.9289 82.6379 52.9289C82.8967 52.9289 83.1525 52.8644 83.3819 52.7406C83.5356 54.7632 83.6192 55.937 83.621 55.9629C83.6578 56.4826 83.9506 56.9499 84.4022 57.2099C84.6435 57.3489 84.9134 57.4188 85.1838 57.4188C85.4193 57.4188 85.655 57.3659 85.8727 57.2592L91.3132 54.5956C91.5034 54.8472 91.7687 55.0416 92.0823 55.1424C97.6734 56.9406 108.961 57.8396 110.965 57.8396C111.174 57.8396 111.33 57.8327 111.463 57.817C117.436 57.436 121.047 56.6504 123.532 55.1927C126.411 53.5029 127.819 50.8856 127.962 46.956C128.224 39.7522 120.804 30.3749 120.488 29.9792ZM31.6081 23.3633C31.4574 23.2055 31.2892 23.0663 31.1076 22.9487C31.3457 22.7806 31.5609 22.5825 31.7474 22.3593C31.6892 22.6996 31.6437 23.0345 31.6081 23.3633ZM31.8666 18.2408C32.4411 18.1534 32.9795 17.9293 33.4425 17.5842C33.0649 18.2347 32.7405 18.9229 32.4713 19.6455C32.38 19.1263 32.1689 18.648 31.8666 18.2408ZM34.7168 15.7665C34.8224 15.4128 34.8739 15.0397 34.8659 14.6567C34.8574 14.247 34.7809 13.8471 34.6432 13.4696C35.1203 13.6499 35.6315 13.7468 36.1573 13.7468H36.1574C36.4219 13.7468 36.6833 13.7196 36.9401 13.6711C36.1098 14.289 35.3672 14.9904 34.7168 15.7665ZM42.8017 24.0983C43.2091 22.7311 44.4764 21.7763 45.8832 21.7763C46.1871 21.7763 46.4909 21.8209 46.786 21.9088C47.6009 22.1516 48.272 22.7011 48.6758 23.4558C49.0821 24.2153 49.1695 25.0912 48.9219 25.922C48.5144 27.2892 47.2472 28.2441 45.8403 28.2441C45.5363 28.2441 45.2326 28.1995 44.9375 28.1114C44.1227 27.8687 43.4516 27.3193 43.0477 26.5645C42.6414 25.8051 42.5541 24.9291 42.8017 24.0983ZM85.8571 77.47C86.2201 77.47 86.5155 77.7311 86.5155 78.0522C86.5155 78.3733 86.2201 78.6344 85.8571 78.6344C85.494 78.6344 85.1986 78.3733 85.1986 78.0522C85.1986 77.7311 85.494 77.47 85.8571 77.47ZM68.6041 47.0856C68.2914 47.0856 68.037 46.8175 68.037 46.4881C68.037 46.1586 68.2914 45.8906 68.6041 45.8906C68.9167 45.8906 69.1711 46.1586 69.1711 46.4881C69.1711 46.8175 68.9167 47.0856 68.6041 47.0856ZM110.925 30.6139C110.71 29.8716 110.437 29.1597 110.109 28.4816C110.547 28.8612 111.071 29.1268 111.638 29.2573C111.304 29.6423 111.056 30.1043 110.925 30.6139ZM111.508 34.3836C111.497 34.0545 111.477 33.7185 111.444 33.3761C111.502 33.4564 111.563 33.535 111.628 33.6108C111.754 33.7565 111.89 33.8888 112.035 34.0088C111.846 34.1123 111.669 34.238 111.508 34.3836ZM108.007 24.4674C108.425 24.4674 108.833 24.4078 109.221 24.294C108.896 25.0162 108.812 25.822 108.98 26.5829C108.389 25.76 107.702 25.0047 106.92 24.3262C107.271 24.4192 107.635 24.4674 108.007 24.4674H108.007ZM94.4811 33.2028C94.9402 32.4803 95.6504 31.9825 96.4811 31.8012C96.7045 31.7524 96.9322 31.7277 97.1579 31.7277C98.6501 31.7277 99.9678 32.802 100.291 34.2819C100.671 36.0253 99.5815 37.7491 97.8613 38.1246C97.638 38.1733 97.4104 38.198 97.1846 38.198C95.6923 38.198 94.3747 37.1237 94.0516 35.6436C93.8667 34.7966 94.0191 33.9297 94.4811 33.2028ZM122.545 50.4313C120.53 52.6958 115.629 53.1821 112.117 53.3509C111.776 53.3673 111.405 53.3757 111.015 53.3757C106.684 53.3757 100.532 52.3718 97.1285 51.7484L103.959 48.4041C105.28 47.7577 109.335 44.6073 110.722 40.1773C110.881 39.6687 111.065 38.9847 111.217 38.1681C111.398 38.3823 111.615 38.5705 111.868 38.7215C112.271 38.9627 112.734 39.0901 113.206 39.0901C114.154 39.0901 115.051 38.5744 115.547 37.7445C115.911 37.1348 116.029 36.4219 115.878 35.7371C115.782 35.3006 115.577 34.8992 115.29 34.569C116.027 34.2995 116.648 33.7757 117.04 33.1017C118.611 35.0109 123.057 40.9356 123.493 47.2808C123.582 48.5838 123.272 49.6144 122.545 50.4313Z" fill="white"/>
<path fill-rule="evenodd" clip-rule="evenodd" d="M92.521 35.9778C91.9553 33.3864 93.5789 30.8311 96.147 30.2705C98.7153 29.7099 101.256 31.3564 101.822 33.9479C102.387 36.5393 100.764 39.0946 98.1955 39.6553C95.6272 40.2158 93.0866 38.5692 92.521 35.9778ZM85.1838 55.8521L103.27 46.9969C104.435 46.427 108.021 43.5623 109.227 39.7094C110.432 35.8566 110.769 28.9123 104.965 24.779C99.1609 20.6457 91.527 22.5806 88.4779 25.7452C85.4285 28.9101 83.34 33.1248 84.0537 41.5537C84.7676 49.9825 85.1838 55.8521 85.1838 55.8521Z" fill="#E7A24E"/>
<path fill-rule="evenodd" clip-rule="evenodd" d="M96.9156 15.0785C96.6757 17.1538 98.1241 19.0262 100.151 19.2602C102.177 19.4944 104.014 18.0018 104.254 15.9265C104.494 13.8511 103.045 11.9788 101.019 11.7448C98.9926 11.5105 97.1553 13.0033 96.9156 15.0785Z" fill="#E7A24E"/>
<path fill-rule="evenodd" clip-rule="evenodd" d="M105.932 18.5603C105.015 19.7578 105.224 21.4576 106.399 22.3571C107.574 23.2565 109.269 23.0149 110.186 21.8175C111.103 20.62 110.894 18.9201 109.719 18.0206C108.544 17.1211 106.849 17.3628 105.932 18.5603Z" fill="#E7A24E"/>
<path fill-rule="evenodd" clip-rule="evenodd" d="M111.214 24.1848C110.33 24.9457 110.205 26.2501 110.935 27.0982C111.665 27.9464 112.973 28.0171 113.857 27.2561C114.742 26.4952 114.867 25.1907 114.137 24.3425C113.407 23.4945 112.098 23.4238 111.214 24.1848Z" fill="#E7A24E"/>
<path fill-rule="evenodd" clip-rule="evenodd" d="M114.288 29.6725C113.314 29.5997 112.466 30.3298 112.393 31.3034C112.32 32.2774 113.05 33.1257 114.024 33.1985C114.997 33.2715 115.846 32.5413 115.919 31.5676C115.992 30.5939 115.261 29.7454 114.288 29.6725Z" fill="#E7A24E"/>
<path fill-rule="evenodd" clip-rule="evenodd" d="M113.86 35.3874C113.343 35.0785 112.657 35.2734 112.329 35.8228C112.001 36.3722 112.154 37.0678 112.671 37.3766C113.189 37.6857 113.874 37.4905 114.202 36.9412C114.53 36.3917 114.377 35.6961 113.86 35.3874Z" fill="#E7A24E"/>
<path fill-rule="evenodd" clip-rule="evenodd" d="M58.4505 32.5621C59.7917 24.2101 58.0237 19.851 55.2193 16.4676C52.4148 13.0841 44.9468 10.5846 38.8505 14.2728C32.7541 17.9611 32.5712 24.9112 33.4857 28.8434C34.4001 32.7756 37.7628 35.9001 38.881 36.5553L56.2558 46.7363C56.2558 46.7363 57.1093 40.9142 58.4505 32.5621ZM50.4233 26.3696C49.6657 28.9116 47.0093 30.3638 44.4901 29.613C41.9708 28.8622 40.5426 26.1929 41.3002 23.6508C42.0578 21.1088 44.7142 19.6566 47.2335 20.4075C49.7527 21.1582 51.1809 23.8276 50.4233 26.3696Z" fill="#E7A24E"/>
<path fill-rule="evenodd" clip-rule="evenodd" d="M44.0633 9.12902C46.1016 9.04681 47.6857 7.28797 47.6016 5.20057C47.5174 3.11316 45.7968 1.48754 43.7585 1.56976C41.7202 1.65188 40.1361 3.41071 40.2202 5.49821C40.3044 7.58552 42.025 9.21124 44.0633 9.12902Z" fill="#E7A24E"/>
<path fill-rule="evenodd" clip-rule="evenodd" d="M37.6011 11.7505C38.8397 10.9412 39.1752 9.26172 38.3504 7.99919C37.5255 6.73648 35.8527 6.36902 34.6141 7.17829C33.3753 7.98746 33.04 9.66699 33.8648 10.9296C34.6897 12.1922 36.3625 12.5597 37.6011 11.7505Z" fill="#E7A24E"/>
<path fill-rule="evenodd" clip-rule="evenodd" d="M32.7239 16.1399C33.5152 15.3486 33.4879 14.0385 32.663 13.2136C31.8382 12.3888 30.528 12.3614 29.7368 13.1527C28.9456 13.9439 28.9728 15.2541 29.7977 16.079C30.6226 16.9039 31.9327 16.9311 32.7239 16.1399Z" fill="#E7A24E"/>
<path fill-rule="evenodd" clip-rule="evenodd" d="M30.9561 20.2246C30.9561 19.2482 30.1646 18.4567 29.1883 18.4567C28.2119 18.4567 27.4204 19.2482 27.4204 20.2246C27.4204 21.2009 28.2119 21.9924 29.1883 21.9924C30.1646 21.9924 30.9561 21.2009 30.9561 20.2246Z" fill="#E7A24E"/>
<path fill-rule="evenodd" clip-rule="evenodd" d="M30.6817 24.7359C30.3956 24.1635 29.7269 23.918 29.1882 24.1873C28.6495 24.4566 28.4448 25.1389 28.731 25.7113C29.0171 26.2836 29.6858 26.5292 30.2245 26.2599C30.7632 25.9904 30.9679 25.3083 30.6817 24.7359Z" fill="#E7A24E"/>
<path fill-rule="evenodd" clip-rule="evenodd" d="M141.737 106.958C142.126 106.673 142.379 106.213 142.379 105.693V103.945C142.379 103.581 142.255 103.247 142.047 102.981C142.494 102.705 142.792 102.211 142.792 101.647V99.8984C142.792 99.0332 142.09 98.3317 141.225 98.3317H133.118C132.859 98.3317 132.615 98.3955 132.4 98.5067C132.185 98.3955 131.941 98.3317 131.682 98.3317H122.994C122.305 98.3317 121.721 98.7766 121.511 99.3941C121.502 99.386 121.493 99.3773 121.483 99.3692C120.507 98.5561 119.129 98.1438 117.387 98.1438C116.35 98.1438 115.429 98.304 114.649 98.62C114.008 98.8802 113.466 99.2406 113.027 99.6947C112.927 98.9259 112.271 98.3317 111.475 98.3317H103.368C102.934 98.3317 102.542 98.5076 102.259 98.7919C101.975 98.5076 101.583 98.3317 101.15 98.3317H97.82C97.1147 98.3317 96.4963 98.803 96.3094 99.483L95.871 101.078L95.4262 99.4786C95.2377 98.8007 94.6204 98.3317 93.9168 98.3317H90.5947C89.7294 98.3317 89.028 99.0332 89.028 99.8984V105.249L86.4997 99.2868C86.2542 98.7078 85.6862 98.3317 85.0573 98.3317H82.7142C82.079 98.3317 81.5066 98.7153 81.2651 99.3028L78.8021 105.296V99.8984C78.8021 99.0332 78.1008 98.3317 77.2355 98.3317H75.1857C74.3204 98.3317 73.619 99.0332 73.619 99.8984V101.548L71.9917 99.0445C71.7028 98.5999 71.2085 98.3317 70.6782 98.3317H68.5314C68.1249 98.3317 67.7557 98.4879 67.4772 98.7418C67.1988 98.4879 66.8296 98.3317 66.4229 98.3317H64.2048C63.3395 98.3317 62.6382 99.0332 62.6382 99.8984V100.492C62.5002 100.324 62.3528 100.163 62.1957 100.01C60.9252 98.7715 59.2527 98.1438 57.2246 98.1438C56.1388 98.1438 55.1486 98.319 54.2799 98.665C53.7361 98.8822 53.2256 99.1875 52.7555 99.5734C52.6058 98.8642 51.9769 98.3317 51.223 98.3317H42.5343C41.8456 98.3317 41.2622 98.7766 41.0521 99.3942C41.0424 99.386 41.0333 99.3773 41.0235 99.3691C40.0475 98.5561 38.6696 98.1438 36.9281 98.1438C35.8905 98.1438 34.9694 98.304 34.19 98.62C33.5484 98.8802 33.0064 99.2405 32.5677 99.6946C32.4675 98.9259 31.8117 98.3317 31.0156 98.3317H22.9083C22.4417 98.3317 22.0239 98.5369 21.7369 98.8605C21.4499 98.5369 21.0322 98.3317 20.5654 98.3317H18.5156C17.6502 98.3317 16.949 99.0332 16.949 99.8984V101.548L15.3217 99.0445C15.0327 98.5999 14.5384 98.3317 14.0082 98.3317H11.8614C11.4107 98.3317 11.0056 98.5231 10.7198 98.8277C10.6709 98.7321 10.6132 98.6404 10.5444 98.5554C10.2471 98.1871 9.79904 97.9729 9.32561 97.9729H7.57919C7.29163 97.9729 7.01929 98.051 6.78495 98.1891C6.54703 98.0492 6.27342 97.9729 5.99081 97.9729H4.30556C3.56794 97.9729 2.93018 98.4874 2.77428 99.2084L2.44755 100.719H1.5674C0.702093 100.719 0.000732422 101.42 0.000732422 102.285V103.846C0.000732422 104.245 0.150138 104.61 0.396011 104.887C0.150138 105.163 0.000732422 105.528 0.000732422 105.927V107.488C0.000732422 108.034 0.280152 108.515 0.703936 108.795L0.464364 109.902C0.364211 110.365 0.47881 110.849 0.776263 111.217C1.07362 111.586 1.52193 111.8 1.99565 111.8H3.68099C3.98416 111.8 4.27046 111.713 4.51333 111.561C4.76008 111.716 5.04793 111.8 5.34577 111.8H7.0285C7.76719 111.8 8.40553 111.284 8.56046 110.562L8.8837 109.055H9.75124C9.94263 109.055 10.1252 109.019 10.2948 108.956V110.245C10.2948 111.111 10.9961 111.812 11.8614 111.812H13.9113C14.7766 111.812 15.478 111.111 15.478 110.245V108.711L17.0379 111.102C17.3271 111.545 17.8206 111.812 18.3499 111.812H20.5654C21.0322 111.812 21.4499 111.607 21.7369 111.283C22.0239 111.607 22.4417 111.812 22.9083 111.812H31.23C31.9599 111.812 32.5713 111.312 32.7454 110.637C32.7862 110.672 32.8265 110.708 32.8687 110.742C33.8927 111.577 35.2989 112 37.0478 112C38.212 112 39.1807 111.84 40.0048 111.513C40.9381 111.146 41.6798 110.563 42.209 109.778C42.7337 109 42.9997 108.145 42.9997 107.235C42.9997 106.276 42.7675 105.434 42.3093 104.731C42.1913 104.55 42.0609 104.379 41.9186 104.218C42.0428 104.144 42.1571 104.052 42.2576 103.944C42.45 103.738 42.5798 103.485 42.6397 103.214H44.2106V110.245C44.2106 111.111 44.912 111.812 45.7774 111.812H47.9953C48.8606 111.812 49.562 111.111 49.562 110.245V103.214H50.549C50.4231 103.804 50.3575 104.445 50.3575 105.135C50.3575 107.216 51.0016 108.901 52.2706 110.141C53.5298 111.375 55.2067 112 57.255 112C59.2846 112 60.9523 111.371 62.2103 110.132C62.362 109.983 62.5044 109.827 62.6382 109.665V110.245C62.6382 111.111 63.3395 111.812 64.2048 111.812H66.4229C66.8296 111.812 67.1988 111.656 67.4772 111.402C67.7557 111.656 68.1249 111.812 68.5314 111.812H70.5813C71.4466 111.812 72.1479 111.111 72.1479 110.245V108.711L73.7078 111.102C73.997 111.545 74.4906 111.812 75.0199 111.812H77.2355C77.4543 111.812 77.6625 111.767 77.8516 111.686C78.0422 111.767 78.2486 111.812 78.4617 111.812H80.8073C81.4547 111.812 82.0354 111.414 82.2687 110.81L82.7917 109.457H85.0511L85.6022 110.829C85.8407 111.423 86.4162 111.812 87.0561 111.812H89.4449C89.6449 111.812 89.8397 111.774 90.0205 111.702C90.1984 111.772 90.3918 111.812 90.5947 111.812H92.6446C93.0624 111.812 93.4421 111.649 93.723 111.382C94.007 111.651 94.3891 111.812 94.8014 111.812H96.9329C97.3477 111.812 97.732 111.649 98.0164 111.377C98.2978 111.647 98.6795 111.812 99.0999 111.812H101.15C101.583 111.812 101.975 111.636 102.259 111.352C102.542 111.636 102.934 111.812 103.368 111.812H111.689C112.419 111.812 113.031 111.312 113.205 110.637C113.246 110.672 113.286 110.708 113.328 110.742C114.352 111.577 115.758 112 117.507 112C118.671 112 119.64 111.84 120.464 111.513C121.397 111.147 122.139 110.563 122.669 109.778C123.193 109 123.459 108.144 123.459 107.235C123.459 106.276 123.227 105.434 122.769 104.731C122.65 104.55 122.52 104.379 122.378 104.218C122.502 104.144 122.616 104.052 122.717 103.944C122.909 103.738 123.039 103.485 123.099 103.214H124.67V110.245C124.67 111.111 125.371 111.812 126.237 111.812H128.455C129.32 111.812 130.021 111.111 130.021 110.245V103.214H131.551V110.245C131.551 111.111 132.252 111.812 133.118 111.812H141.439C142.305 111.812 143.006 111.111 143.006 110.245V108.497C143.006 107.733 142.46 107.097 141.737 106.958ZM32.3774 105.334C32.3068 105.341 32.2377 105.354 32.1695 105.37V105.068C32.235 105.158 32.304 105.247 32.3774 105.334ZM58.2902 106.663C58.0164 106.951 57.7054 107.075 57.25 107.075C56.8003 107.075 56.4771 106.945 56.2038 106.657C55.916 106.353 55.7701 105.817 55.7701 105.065C55.7701 104.534 55.8416 103.825 56.1802 103.466C56.3547 103.281 56.6341 103.069 57.25 103.069C57.8666 103.069 58.1385 103.274 58.3112 103.458C58.5681 103.728 58.7094 104.289 58.7094 105.036C58.7094 105.575 58.6359 106.295 58.2902 106.663ZM112.837 105.334C112.766 105.34 112.697 105.354 112.629 105.37V105.068C112.694 105.158 112.763 105.247 112.837 105.334Z" fill="white"/>
<path fill-rule="evenodd" clip-rule="evenodd" d="M50.1899 6.08097C62.8126 4.17923 67.8117 8.84308 67.8117 8.84308C74.9139 15.0309 73.908 23.3523 73.908 23.3523C70.4636 24.5412 62.5687 27.0103 62.5687 27.0103C62.6296 27.3761 62.6296 28.4124 62.6296 28.4124L73.847 24.7851C73.5727 33.4421 69.8151 43.2192 69.8151 43.2192C69.5484 43.1277 68.6034 43.1201 68.6034 43.1201C65.7991 43.1048 65.2047 45.5131 65.1895 46.4884C65.1743 47.4639 65.5705 48.2717 65.5705 48.2717C59.9916 52.4002 52.4328 54.9474 49.9638 55.9534C47.4948 56.9594 46.7023 58.3919 46.7023 59.8246C46.7023 61.2573 48.4398 66.4392 61.5776 71.8954C74.7154 77.3518 82.3511 78.0073 82.3511 78.5255C82.3511 79.0437 83.2809 81.4823 85.8719 81.4823C88.4629 81.4823 89.3164 79.5008 89.3164 78.0683C89.3164 76.6357 88.4479 74.5932 85.8873 74.5778C83.3268 74.5625 82.4427 76.9098 82.4427 76.9098C79.2727 76.422 76.7732 76.1782 64.2756 71.484C51.778 66.7897 48.1506 61.3334 48.0896 59.6875C48.0287 58.0415 50.9855 57.0965 50.9855 57.0965C59.5814 54.0483 66.4099 49.2324 66.4099 49.2324C66.4099 49.2324 66.7756 49.9334 68.6198 49.9334C70.4639 49.9334 71.7446 48.0471 71.7446 48.0471L71.9085 48.1006C74.8043 49.0759 82.6382 51.3621 82.6382 51.3621L82.6078 49.9599C77.8526 48.8016 72.0764 46.8507 72.0764 46.8507C72.2592 45.1438 70.8572 43.8176 70.8572 43.8176C75.0027 33.7586 75.1245 24.3093 75.1245 24.3093C83.1717 21.444 92.4992 18.091 92.4992 18.091L91.9506 16.7497C85.3665 19.4931 75.277 22.6633 75.277 22.6633C75.2161 18.6702 74.4541 12.9699 68.7233 7.78803C62.9926 2.60607 50.2204 4.55696 50.2204 4.55696C50.2204 4.55696 50.1899 5.89812 50.1899 6.08097ZM66.4704 46.488C66.4704 45.2927 67.4257 44.3237 68.6042 44.3237C69.7826 44.3237 70.7379 45.2927 70.7379 46.488C70.7379 47.6833 69.7826 48.6522 68.6042 48.6522C67.4257 48.6522 66.4704 47.6833 66.4704 46.488ZM83.6321 78.0522C83.6321 76.8653 84.6283 75.9032 85.8573 75.9032C87.0861 75.9032 88.0824 76.8653 88.0824 78.0522C88.0824 79.239 87.0861 80.201 85.8573 80.201C84.6283 80.201 83.6321 79.239 83.6321 78.0522Z" fill="#555E63"/>
<path fill-rule="evenodd" clip-rule="evenodd" d="M112.192 54.9158C105.852 55.2206 94.2996 52.7975 94.2996 52.7975L92.5621 53.651C98.2 55.4642 110.439 56.4093 111.308 56.257C121.916 55.5863 126.153 53.6051 126.397 46.899C126.641 40.193 119.264 30.9569 119.264 30.9569L118.106 31.9325C120.605 34.9197 124.629 40.9551 125.056 47.1734C125.482 53.3918 118.532 54.611 112.192 54.9158Z" fill="#555E63"/>
<path fill-rule="evenodd" clip-rule="evenodd" d="M62.5555 105.086C62.5555 103.398 62.071 102.081 61.1022 101.132C60.1309 100.185 58.8408 99.7106 57.2245 99.7106C56.3321 99.7106 55.5442 99.848 54.8611 100.12C54.3486 100.325 53.877 100.636 53.446 101.055C53.0152 101.474 52.6735 101.948 52.4263 102.476C52.0923 103.193 51.9241 104.08 51.9241 105.135C51.9241 106.787 52.4059 108.083 53.367 109.022C54.3282 109.964 55.6259 110.433 57.255 110.433C58.8638 110.433 60.1513 109.961 61.1125 109.015C62.0737 108.071 62.5555 106.76 62.5555 105.086ZM59.4476 102.379C60.0008 102.962 60.2761 103.848 60.2761 105.036C60.2761 106.238 59.9932 107.138 59.4272 107.741C58.8587 108.34 58.1346 108.641 57.2499 108.641C56.3678 108.641 55.6387 108.338 55.065 107.733C54.4914 107.126 54.2034 106.238 54.2034 105.065C54.2034 103.872 54.4836 102.981 55.042 102.389C55.6004 101.799 56.3372 101.503 57.2499 101.503C58.1653 101.503 58.897 101.794 59.4476 102.379Z" fill="#E7A24E"/>
<path fill-rule="evenodd" clip-rule="evenodd" d="M47.9953 110.246V101.647H51.223V99.8986H42.5343V101.647H45.7773V110.246H47.9953Z" fill="#E7A24E"/>
<path fill-rule="evenodd" clip-rule="evenodd" d="M40.9103 108.902C41.2596 108.384 41.433 107.827 41.433 107.235C41.433 106.582 41.2877 106.033 40.9971 105.587C40.7063 105.142 40.3036 104.793 39.7886 104.535C39.2761 104.28 38.4833 104.029 37.4098 103.791C36.3366 103.55 35.661 103.319 35.383 103.095C35.1638 102.921 35.0541 102.712 35.0541 102.466C35.0541 102.196 35.1715 101.982 35.4035 101.821C35.763 101.57 36.2626 101.445 36.9 101.445C37.5169 101.445 37.9809 101.563 38.2894 101.796C38.5979 102.03 38.7994 102.413 38.8938 102.948L41.1118 102.875C41.076 101.914 40.714 101.149 40.0206 100.573C39.3296 99.9973 38.2971 99.7106 36.9281 99.7106C36.0867 99.7106 35.3729 99.8311 34.7788 100.072C34.1849 100.313 33.7309 100.662 33.4149 101.122C33.1013 101.582 32.9432 102.078 32.9432 102.606C32.9432 103.427 33.2772 104.123 33.9476 104.694C34.4244 105.101 35.253 105.443 36.4335 105.722C37.3512 105.939 37.9376 106.088 38.1951 106.175C38.5725 106.3 38.8376 106.45 38.9879 106.621C39.1384 106.794 39.215 107.001 39.215 107.247C39.215 107.627 39.0339 107.96 38.6744 108.244C38.315 108.528 37.7796 108.67 37.0708 108.67C36.4003 108.67 35.8674 108.511 35.4723 108.191C35.077 107.871 34.8171 107.372 34.687 106.69L32.5302 106.893C32.6754 108.046 33.1165 108.926 33.8584 109.528C34.6003 110.132 35.6635 110.433 37.0479 110.433C37.9988 110.433 38.7942 110.308 39.4317 110.055C40.0691 109.805 40.561 109.419 40.9103 108.902Z" fill="#E7A24E"/>
<path fill-rule="evenodd" clip-rule="evenodd" d="M25.1263 108.497V105.693H30.6027V103.945H25.1263V101.647H31.0156V99.8986H22.9082V110.246H31.2299V108.497H25.1263Z" fill="#E7A24E"/>
<path fill-rule="evenodd" clip-rule="evenodd" d="M20.5654 110.246V99.8986H18.5157V106.833L14.0082 99.8986H11.8615V110.246H13.9113V103.444L18.35 110.246H20.5654Z" fill="#E7A24E"/>
<path fill-rule="evenodd" clip-rule="evenodd" d="M9.75122 103.846V102.286H8.73409L9.3255 99.5398H7.57917L7.0055 102.286H5.39927L5.99079 99.5398H4.30554L3.71161 102.286H1.56738V103.846H3.37498L2.92638 105.927H1.56738V107.488H2.58976L1.99572 110.234H3.68097L4.275 107.488H5.91933L5.34585 110.234H7.02848L7.61738 107.488H9.75122V105.927H7.9539L8.39998 103.846H9.75122ZM5.06023 103.846H6.67916L6.24568 105.927H4.61153L5.06023 103.846Z" fill="#E7A24E"/>
<path fill-rule="evenodd" clip-rule="evenodd" d="M64.205 99.8986V110.246H66.423V99.8986H64.205Z" fill="#E7A24E"/>
<path fill-rule="evenodd" clip-rule="evenodd" d="M68.5315 99.8986V110.246H70.5813V103.444L75.0199 110.246H77.2354V99.8986H75.1857V106.833L70.6781 99.8986H68.5315Z" fill="#555E63"/>
<path fill-rule="evenodd" clip-rule="evenodd" d="M82.7144 99.8986L78.4618 110.246H80.8074L81.7175 107.89H86.1103L87.0561 110.246H89.445L85.0573 99.8986H82.7144ZM82.3905 106.141L83.8693 102.312L85.3912 106.141H82.3905Z" fill="#555E63"/>
<path fill-rule="evenodd" clip-rule="evenodd" d="M97.8201 99.8986L95.88 106.955L93.9167 99.8986H90.5947V110.246H92.6446L92.6522 102.1L94.8015 110.246H96.933L99.0922 102.1L99.0999 110.246H101.15V99.8986H97.8201Z" fill="#43A2D9"/>
<path fill-rule="evenodd" clip-rule="evenodd" d="M103.368 99.8986V110.246H111.689V108.497H105.586V105.693H111.062V103.945H105.586V101.647H111.475V99.8986H103.368Z" fill="#43A2D9"/>
<path fill-rule="evenodd" clip-rule="evenodd" d="M114.407 104.694C114.884 105.101 115.712 105.443 116.893 105.722C117.81 105.939 118.397 106.088 118.654 106.175C119.032 106.3 119.297 106.45 119.447 106.621C119.598 106.794 119.674 107.001 119.674 107.247C119.674 107.627 119.493 107.96 119.134 108.244C118.774 108.528 118.239 108.67 117.53 108.67C116.86 108.67 116.327 108.511 115.932 108.191C115.536 107.871 115.276 107.372 115.146 106.69L112.989 106.893C113.135 108.046 113.576 108.926 114.318 109.528C115.06 110.132 116.123 110.433 117.507 110.433C118.458 110.433 119.253 110.308 119.891 110.055C120.528 109.805 121.02 109.419 121.369 108.902C121.719 108.384 121.892 107.827 121.892 107.235C121.892 106.582 121.747 106.033 121.456 105.587C121.166 105.142 120.763 104.793 120.248 104.535C119.735 104.28 118.942 104.029 117.869 103.791C116.796 103.55 116.12 103.319 115.842 103.095C115.623 102.921 115.513 102.712 115.513 102.466C115.513 102.196 115.631 101.982 115.863 101.821C116.222 101.57 116.722 101.445 117.359 101.445C117.976 101.445 118.44 101.563 118.749 101.796C119.057 102.03 119.259 102.413 119.353 102.948L121.571 102.875C121.535 101.914 121.173 101.149 120.48 100.573C119.789 99.9973 118.756 99.7106 117.387 99.7106C116.546 99.7106 115.832 99.8311 115.238 100.072C114.644 100.313 114.19 100.662 113.874 101.122C113.561 101.582 113.402 102.078 113.402 102.606C113.402 103.427 113.736 104.123 114.407 104.694Z" fill="#43A2D9"/>
<path fill-rule="evenodd" clip-rule="evenodd" d="M126.237 101.647V110.246H128.455V101.647H131.682V99.8986H122.994V101.647H126.237Z" fill="#43A2D9"/>
<path fill-rule="evenodd" clip-rule="evenodd" d="M133.118 99.8986V110.246H141.439V108.497H135.336V105.693H140.812V103.945H135.336V101.647H141.225V99.8986H133.118Z" fill="#43A2D9"/>
<path fill-rule="evenodd" clip-rule="evenodd" d="M17.4526 29.0035C17.483 26.4734 20.2568 19.8589 23.1221 17.6642L22.0857 16.6583C22.0857 16.6583 15.7454 23.791 16.2332 29.5825C16.721 35.3741 23.0611 36.4105 34.0652 35.4961L33.1202 34.2158C33.1202 34.2158 26.6581 35.0693 22.9393 34.2463C19.2205 33.4233 17.422 31.5335 17.4526 29.0035Z" fill="#555E63"/>
</g>
<defs>
<clipPath id="clip0">
<rect width="143.007" height="112" fill="white"/>
</clipPath>
</defs>
</svg>
