<svg width="31" height="31" viewBox="0 0 31 31" fill="none" xmlns="http://www.w3.org/2000/svg">
<g clip-path="url(#clip0)">
<path d="M15.0781 30.1561C23.4054 30.1561 30.1561 23.4054 30.1561 15.0781C30.1561 6.75068 23.4054 0 15.0781 0C6.75068 0 0 6.75068 0 15.0781C0 23.4054 6.75068 30.1561 15.0781 30.1561Z" fill="#2796CE"/>
<path d="M3.63061 15.496C3.59436 15.401 3.57814 15.2995 3.58299 15.198C3.58784 15.0964 3.61365 14.9969 3.6588 14.9058C3.70394 14.8146 3.76745 14.7338 3.84532 14.6684C3.9232 14.603 4.01376 14.5544 4.11132 14.5257C5.00705 14.1345 5.90277 13.7524 6.7985 13.3612C7.41655 13.0895 8.0346 12.8208 8.6646 12.576C8.72199 12.5504 8.77782 12.5215 8.8318 12.4894C9.26772 12.358 9.67975 12.161 10.1007 11.9908C12.7521 10.9159 15.4303 9.90074 18.1115 8.9035C18.5534 8.73928 19.0072 8.56611 19.4372 8.3989C19.9776 8.24066 20.4942 8.01971 21.0286 7.84057C21.582 7.62129 22.1472 7.4329 22.7215 7.27626C23.3187 7.14787 23.671 7.47034 23.5844 8.06151C23.5844 8.12422 23.5844 8.1899 23.5695 8.2526C23.456 8.88857 23.3485 9.52752 23.2321 10.1635C23.1037 10.8622 22.9693 11.5608 22.838 12.2535C22.7394 12.7402 22.6379 13.2299 22.5394 13.7165C22.4289 14.2689 22.3244 14.8242 22.2169 15.3766L21.7482 17.6159L21.369 19.4611C21.2705 19.909 21.1689 20.3569 21.0704 20.8047C20.937 21.4019 20.8047 22.008 20.6733 22.623C20.675 22.7651 20.6455 22.9058 20.5867 23.0351C20.5562 23.0841 20.5436 23.1421 20.5509 23.1993C20.5002 23.512 20.3994 23.8145 20.2523 24.095C20.109 24.4772 19.5357 24.6534 19.058 24.5399C18.8771 24.4948 18.7081 24.4113 18.5624 24.2951C17.4188 23.3993 16.2604 22.5335 15.1138 21.6467C14.8152 21.4228 14.5167 21.2167 14.248 20.9749C13.3522 20.3151 12.4864 19.6343 11.6086 18.9625C11.557 18.9252 11.5099 18.8822 11.4682 18.8341C11.3906 18.7296 11.4682 18.658 11.5249 18.5833C11.7429 18.3474 11.9907 18.1414 12.2296 17.9294C12.6774 17.5264 13.1253 17.1203 13.5762 16.7351C14.1733 16.2037 14.7705 15.6632 15.3676 15.1288L16.6963 13.9345C17.2636 13.4239 17.8338 12.9164 18.4011 12.4058C18.84 12.0117 19.2819 11.6205 19.7149 11.2115C19.8196 11.1321 19.9193 11.0463 20.0134 10.9547C20.0911 10.8651 20.1538 10.7577 20.0642 10.6561C19.9746 10.5546 19.8642 10.5875 19.7656 10.6561C19.3506 10.886 18.9595 11.1577 18.5713 11.4115L13.4358 14.6302L9.72454 16.9889C9.51852 17.1203 9.3125 17.2517 9.10947 17.386C9.01432 17.4639 8.89501 17.5061 8.77208 17.5055C8.35672 17.3981 7.94714 17.2696 7.54494 17.1203C6.50888 16.7769 5.47282 16.4216 4.43975 16.0872C4.25696 16.0278 4.0824 15.9456 3.92023 15.8424C3.7863 15.7642 3.68387 15.6417 3.63061 15.496Z" fill="#FEFEFE"/>
<path d="M8.78099 17.4726C8.89546 17.4561 9.00357 17.4097 9.09449 17.3382L14.6659 13.7792L18.1354 11.5698C18.637 11.2503 19.1416 10.9308 19.6462 10.6143C19.7176 10.5704 19.795 10.5372 19.8761 10.5158C19.9127 10.5059 19.9513 10.506 19.988 10.5159C20.0246 10.5258 20.058 10.5453 20.0847 10.5722C20.1114 10.5992 20.1305 10.6328 20.14 10.6696C20.1495 10.7063 20.1491 10.745 20.1388 10.7815C20.1168 10.8756 20.0656 10.9602 19.9925 11.0234L18.4996 12.3699C17.6875 13.0955 16.8724 13.818 16.0632 14.5436C15.6094 14.9496 15.1675 15.3646 14.7137 15.7737C14.027 16.3888 13.3343 16.9979 12.6505 17.6159C12.2833 17.9443 11.925 18.2847 11.5607 18.6191C11.504 18.6729 11.4383 18.7236 11.504 18.8132C11.3487 19.9687 11.2293 21.1272 11.077 22.2856C11.0293 22.6469 10.9904 23.0112 10.9457 23.3724C10.9493 23.4431 10.9258 23.5126 10.88 23.5665C10.7307 23.6143 10.7128 23.5038 10.6829 23.4053C10.5199 23.0814 10.3889 22.7424 10.2918 22.3931C10.0171 21.4974 9.74539 20.6017 9.46771 19.7059C9.28558 19.1088 9.09449 18.5116 8.90938 17.9324C8.91182 17.9104 8.90963 17.8882 8.90295 17.8671C8.89626 17.846 8.88523 17.8265 8.87056 17.81C8.85199 17.7909 8.83824 17.7677 8.83045 17.7423C8.82266 17.7168 8.82106 17.6899 8.82578 17.6637C8.82845 17.6479 8.82711 17.6317 8.8219 17.6166C8.81668 17.6014 8.80775 17.5879 8.79592 17.5771C8.78689 17.5722 8.77913 17.5653 8.77326 17.5569C8.7674 17.5484 8.76359 17.5388 8.76213 17.5286C8.76068 17.5184 8.76163 17.5081 8.76491 17.4984C8.76818 17.4886 8.77369 17.4798 8.78099 17.4726Z" fill="#CADFED"/>
<path d="M14.2659 20.936C14.2002 20.936 14.1644 20.9868 14.1226 21.0256L11.5399 23.4501C11.2682 23.7068 11.0532 23.7486 10.8323 23.5635C10.8875 23.4292 10.9129 23.2846 10.9069 23.1395C10.9935 22.5424 11.0622 21.9303 11.1368 21.3242C11.1936 20.8435 11.2443 20.3628 11.301 19.8821C11.3369 19.5596 11.3787 19.2372 11.4175 18.9177C11.4198 18.8952 11.4283 18.8739 11.442 18.856C11.4557 18.8381 11.4741 18.8243 11.4951 18.8162L14.2659 20.936Z" fill="#A7C5DE"/>
</g>
<defs>
<clipPath id="clip0">
<rect width="30.1561" height="30.1561" fill="white"/>
</clipPath>
</defs>
</svg>
