<svg width="342" height="132" viewBox="0 0 342 132" fill="none" xmlns="http://www.w3.org/2000/svg">
<g clip-path="url(#clip0)">
<path fill-rule="evenodd" clip-rule="evenodd" d="M149.014 109.52C149.014 105.395 147.83 102.176 145.463 99.857C143.09 97.5444 139.938 96.3849 135.988 96.3849C133.808 96.3849 131.883 96.7207 130.214 97.3852C128.962 97.8857 127.809 98.6445 126.757 99.6686C125.704 100.693 124.869 101.852 124.265 103.141C123.448 104.894 123.038 107.06 123.038 109.637C123.038 113.675 124.215 116.841 126.563 119.136C128.912 121.437 132.083 122.584 136.063 122.584C139.994 122.584 143.14 121.431 145.488 119.118C147.836 116.811 149.014 113.61 149.014 109.52ZM141.421 102.905C142.772 104.329 143.445 106.495 143.445 109.396C143.445 112.333 142.754 114.534 141.37 116.005C139.981 117.47 138.212 118.206 136.05 118.206C133.896 118.206 132.113 117.465 130.712 115.988C129.311 114.504 128.607 112.333 128.607 109.467C128.607 106.554 129.292 104.376 130.656 102.929C132.021 101.487 133.821 100.763 136.05 100.763C138.287 100.763 140.075 101.475 141.421 102.905Z" fill="#E7A24E"/>
<path fill-rule="evenodd" clip-rule="evenodd" d="M113.439 122.125V101.116H121.325V96.8442H100.095V101.116H108.02V122.125H113.439Z" fill="#E7A24E"/>
<path fill-rule="evenodd" clip-rule="evenodd" d="M96.1274 118.841C96.9811 117.576 97.4048 116.217 97.4048 114.769C97.4048 113.174 97.0495 111.833 96.3396 110.744C95.629 109.655 94.6447 108.802 93.3868 108.172C92.1345 107.549 90.1974 106.937 87.5748 106.354C84.9522 105.765 83.3014 105.201 82.6228 104.653C82.0867 104.23 81.8187 103.718 81.8187 103.117C81.8187 102.458 82.1056 101.934 82.6724 101.54C83.5506 100.928 84.7715 100.622 86.3288 100.622C87.8366 100.622 88.9702 100.91 89.7234 101.481C90.4773 102.052 90.9695 102.988 91.2005 104.295L96.6195 104.118C96.5323 101.77 95.6478 99.8982 93.9537 98.4916C92.2651 97.0851 89.7423 96.3849 86.3972 96.3849C84.3422 96.3849 82.5977 96.6795 81.1465 97.268C79.6945 97.8564 78.586 98.7094 77.8133 99.8333C77.0475 100.957 76.6608 102.17 76.6608 103.459C76.6608 105.465 77.4768 107.166 79.1151 108.561C80.2802 109.555 82.3045 110.391 85.1889 111.073C87.431 111.603 88.8641 111.968 89.4931 112.18C90.4152 112.486 91.063 112.851 91.4302 113.269C91.7981 113.692 91.9851 114.199 91.9851 114.799C91.9851 115.729 91.5426 116.54 90.6644 117.235C89.7863 117.93 88.4781 118.277 86.7463 118.277C85.1079 118.277 83.8061 117.888 82.8406 117.105C81.8745 116.323 81.2393 115.105 80.9217 113.439L75.6521 113.934C76.0067 116.753 77.0845 118.9 78.8973 120.371C80.7102 121.848 83.3076 122.584 86.6904 122.584C89.0135 122.584 90.9569 122.278 92.515 121.661C94.0716 121.049 95.2737 120.107 96.1274 118.841Z" fill="#E7A24E"/>
<path fill-rule="evenodd" clip-rule="evenodd" d="M57.562 117.853V111.003H70.943V106.731H57.562V101.116H71.9517V96.8442H52.1423V122.125H72.4752V117.853H57.562Z" fill="#E7A24E"/>
<path fill-rule="evenodd" clip-rule="evenodd" d="M46.4185 122.125V96.8442H41.41V113.787L30.3968 96.8442H25.1516V122.125H30.1601V105.506L41.0051 122.125H46.4185Z" fill="#E7A24E"/>
<path fill-rule="evenodd" clip-rule="evenodd" d="M19.9957 106.489V102.676H17.5107L18.9556 95.9674H14.6884L13.2867 102.676H9.36229L10.8073 95.9674H6.69014L5.23889 102.676H0V106.489H4.41658L3.31994 111.574H0V115.387H2.49764L1.04638 122.096H5.1635L6.61545 115.387H10.6328L9.23175 122.096H13.3433L14.782 115.387H19.9957V111.574H15.6043L16.6939 106.489H19.9957ZM8.5337 106.489H12.4896L11.4306 111.574H7.43776L8.5337 106.489Z" fill="#E7A24E"/>
<path fill-rule="evenodd" clip-rule="evenodd" d="M153.044 96.8442V122.125H158.463V96.8442H153.044Z" fill="#E7A24E"/>
<path fill-rule="evenodd" clip-rule="evenodd" d="M163.615 96.8442V122.125H168.624V105.506L179.469 122.125H184.882V96.8442H179.874V113.787L168.861 96.8442H163.615Z" fill="white"/>
<path fill-rule="evenodd" clip-rule="evenodd" d="M198.269 96.8442L187.878 122.125H193.609L195.833 116.369H206.566L208.877 122.125H214.714L203.994 96.8442H198.269ZM197.477 112.097L201.09 102.741L204.81 112.097H197.477Z" fill="white"/>
<path fill-rule="evenodd" clip-rule="evenodd" d="M235.177 96.8442L230.437 114.087L225.64 96.8442H217.523V122.125H222.532L222.55 102.223L227.801 122.125H233.01L238.285 102.223L238.304 122.125H243.313V96.8442H235.177Z" fill="#43A2D9"/>
<path fill-rule="evenodd" clip-rule="evenodd" d="M248.731 96.8442V122.125H269.064V117.853H254.151V111.003H267.532V106.731H254.151V101.116H268.54V96.8442H248.731Z" fill="#43A2D9"/>
<path fill-rule="evenodd" clip-rule="evenodd" d="M275.704 108.561C276.869 109.555 278.894 110.391 281.778 111.073C284.02 111.603 285.453 111.968 286.082 112.18C287.004 112.486 287.652 112.851 288.019 113.269C288.387 113.692 288.574 114.199 288.574 114.799C288.574 115.729 288.132 116.54 287.253 117.235C286.375 117.93 285.067 118.277 283.335 118.277C281.697 118.277 280.394 117.888 279.429 117.105C278.464 116.323 277.828 115.105 277.511 113.439L272.24 113.934C272.596 116.753 273.674 118.9 275.486 120.371C277.299 121.848 279.897 122.584 283.279 122.584C285.603 122.584 287.546 122.278 289.103 121.661C290.661 121.049 291.863 120.107 292.717 118.841C293.57 117.576 293.993 116.217 293.993 114.769C293.993 113.174 293.638 111.833 292.928 110.744C292.218 109.655 291.234 108.802 289.975 108.172C288.723 107.549 286.786 106.937 284.163 106.354C281.541 105.765 279.89 105.201 279.211 104.653C278.676 104.23 278.408 103.718 278.408 103.117C278.408 102.458 278.694 101.934 279.261 101.54C280.14 100.928 281.361 100.622 282.918 100.622C284.425 100.622 285.559 100.91 286.313 101.481C287.067 102.052 287.559 102.988 287.789 104.295L293.209 104.118C293.121 101.77 292.237 99.8982 290.542 98.4916C288.854 97.0851 286.331 96.3849 282.986 96.3849C280.931 96.3849 279.186 96.6795 277.735 97.268C276.284 97.8564 275.174 98.7094 274.402 99.8333C273.637 100.957 273.25 102.17 273.25 103.459C273.25 105.465 274.066 107.166 275.704 108.561Z" fill="#43A2D9"/>
<path fill-rule="evenodd" clip-rule="evenodd" d="M304.608 101.116V122.125H310.028V101.116H317.914V96.8442H296.684V101.116H304.608Z" fill="#43A2D9"/>
<path fill-rule="evenodd" clip-rule="evenodd" d="M321.42 96.8442V122.125H341.753V117.853H326.84V111.003H340.22V106.731H326.84V101.116H341.23V96.8442H321.42Z" fill="#43A2D9"/>
<path fill-rule="evenodd" clip-rule="evenodd" d="M187.247 43.7365C186.677 41.1236 188.314 38.5474 190.904 37.982C193.493 37.4166 196.054 39.077 196.625 41.6899C197.196 44.3027 195.558 46.8797 192.968 47.4443C190.38 48.0097 187.818 46.3493 187.247 43.7365ZM179.849 63.7751L198.086 54.8472C199.26 54.2722 202.876 51.3839 204.091 47.4993C205.306 43.6146 205.646 36.6131 199.794 32.445C193.942 28.2777 186.245 30.2287 183.171 33.4197C180.096 36.6107 177.991 40.8601 178.71 49.3587C179.43 57.8574 179.849 63.7751 179.849 63.7751Z" fill="#E7A24E"/>
<path fill-rule="evenodd" clip-rule="evenodd" d="M191.678 22.6649C191.436 24.757 192.897 26.6451 194.94 26.8808C196.984 27.1174 198.836 25.6122 199.077 23.5194C199.319 21.4274 197.859 19.5393 195.815 19.3035C193.773 19.067 191.92 20.5721 191.678 22.6649Z" fill="#E7A24E"/>
<path fill-rule="evenodd" clip-rule="evenodd" d="M200.77 26.1753C199.845 27.3826 200.056 29.0963 201.24 30.0034C202.424 30.9104 204.134 30.6667 205.059 29.4594C205.983 28.2514 205.772 26.5376 204.588 25.6306C203.403 24.7243 201.694 24.9672 200.77 26.1753Z" fill="#E7A24E"/>
<path fill-rule="evenodd" clip-rule="evenodd" d="M206.095 31.8461C205.204 32.613 205.077 33.9286 205.814 34.7839C206.549 35.6392 207.869 35.71 208.76 34.9431C209.652 34.1755 209.778 32.8607 209.042 32.0054C208.306 31.1501 206.987 31.0792 206.095 31.8461Z" fill="#E7A24E"/>
<path fill-rule="evenodd" clip-rule="evenodd" d="M209.194 37.3791C208.212 37.3059 207.357 38.0417 207.284 39.0236C207.21 40.0055 207.946 40.8608 208.928 40.934C209.909 41.0081 210.765 40.2715 210.839 39.2896C210.912 38.3085 210.176 37.4524 209.194 37.3791Z" fill="#E7A24E"/>
<path fill-rule="evenodd" clip-rule="evenodd" d="M208.762 43.1415C208.241 42.8302 207.55 43.0261 207.219 43.5803C206.889 44.1346 207.043 44.8354 207.565 45.1468C208.086 45.4589 208.777 45.2622 209.107 44.708C209.439 44.1537 209.284 43.4529 208.762 43.1415Z" fill="#E7A24E"/>
<path fill-rule="evenodd" clip-rule="evenodd" d="M152.895 40.2931C154.247 31.8716 152.464 27.4766 149.637 24.065C146.809 20.6534 139.28 18.1337 133.133 21.8519C126.986 25.5709 126.802 32.5788 127.724 36.543C128.645 40.5081 132.036 43.6585 133.164 44.3186L150.682 54.5844C150.682 54.5844 151.543 48.7137 152.895 40.2931ZM144.802 34.0489C144.037 36.6123 141.359 38.076 138.819 37.3195C136.279 36.5622 134.839 33.8705 135.603 31.3078C136.367 28.7444 139.045 27.2807 141.585 28.0372C144.125 28.7945 145.565 31.4862 144.802 34.0489Z" fill="#E7A24E"/>
<path fill-rule="evenodd" clip-rule="evenodd" d="M138.389 16.666C140.444 16.5832 142.041 14.8097 141.956 12.7049C141.871 10.6002 140.137 8.96129 138.081 9.04411C136.026 9.12693 134.429 10.9004 134.514 13.0052C134.599 15.1099 136.333 16.7488 138.389 16.666Z" fill="#E7A24E"/>
<path fill-rule="evenodd" clip-rule="evenodd" d="M131.873 19.3091C133.122 18.4928 133.46 16.7998 132.629 15.5264C131.797 14.2538 130.11 13.8827 128.861 14.699C127.613 15.5145 127.274 17.2083 128.106 18.4809C128.938 19.7543 130.624 20.1246 131.873 19.3091Z" fill="#E7A24E"/>
<path fill-rule="evenodd" clip-rule="evenodd" d="M126.956 23.7345C127.753 22.9374 127.726 21.6162 126.894 20.784C126.063 19.9526 124.742 19.9248 123.944 20.7227C123.146 21.5207 123.174 22.8418 124.005 23.6732C124.837 24.5054 126.158 24.5325 126.956 23.7345Z" fill="#E7A24E"/>
<path fill-rule="evenodd" clip-rule="evenodd" d="M125.173 27.8532C125.173 26.8689 124.375 26.0701 123.39 26.0701C122.406 26.0701 121.608 26.8689 121.608 27.8532C121.608 28.8375 122.406 29.6354 123.39 29.6354C124.375 29.6354 125.173 28.8375 125.173 27.8532Z" fill="#E7A24E"/>
<path fill-rule="evenodd" clip-rule="evenodd" d="M124.897 32.402C124.608 31.8246 123.934 31.5769 123.39 31.8485C122.847 32.12 122.641 32.8081 122.93 33.3855C123.218 33.962 123.893 34.2097 124.436 33.9381C124.979 33.6666 125.185 32.9793 124.897 32.402Z" fill="#E7A24E"/>
<path fill-rule="evenodd" clip-rule="evenodd" d="M144.566 13.5929C157.293 11.6753 162.333 16.3778 162.333 16.3778C169.494 22.6164 168.48 31.0068 168.48 31.0068C165.008 32.2053 157.047 34.6947 157.047 34.6947C157.109 35.0642 157.109 36.109 157.109 36.109L168.418 32.4513C168.142 41.1802 164.354 51.0382 164.354 51.0382C164.085 50.9459 163.131 50.9379 163.131 50.9379C160.304 50.9228 159.705 53.3508 159.69 54.3343C159.674 55.3178 160.074 56.1325 160.074 56.1325C154.449 60.295 146.828 62.8633 144.338 63.8778C141.849 64.8916 141.049 66.3362 141.049 67.7808C141.049 69.2253 142.801 74.4502 156.048 79.9514C169.294 85.4526 176.993 86.1136 176.993 86.6368C176.993 87.1592 177.931 89.6175 180.543 89.6175C183.156 89.6175 184.016 87.6203 184.016 86.1757C184.016 84.7311 183.141 82.6718 180.559 82.6558C177.977 82.6407 177.086 85.0075 177.086 85.0075C173.889 84.5153 171.369 84.27 158.768 79.5365C146.167 74.8038 142.51 69.3018 142.449 67.643C142.387 65.9826 145.368 65.0301 145.368 65.0301C154.035 61.957 160.92 57.1009 160.92 57.1009C160.92 57.1009 161.289 57.808 163.148 57.808C165.008 57.808 166.299 55.9063 166.299 55.9063L166.464 55.9597C169.384 56.9432 177.283 59.2486 177.283 59.2486L177.252 57.8343C172.457 56.6669 166.634 54.6999 166.634 54.6999C166.818 52.9781 165.404 51.6419 165.404 51.6419C169.584 41.4995 169.707 31.9719 169.707 31.9719C177.821 29.0828 187.225 25.7023 187.225 25.7023L186.672 24.3493C180.033 27.1158 169.861 30.3123 169.861 30.3123C169.799 26.286 169.031 20.5387 163.252 15.3138C157.475 10.089 144.597 12.056 144.597 12.056C144.597 12.056 144.566 13.4082 144.566 13.5929ZM160.981 54.3335C160.981 53.1287 161.944 52.1515 163.132 52.1515C164.32 52.1515 165.284 53.1287 165.284 54.3335C165.284 55.5392 164.32 56.5163 163.132 56.5163C161.944 56.5163 160.981 55.5392 160.981 54.3335ZM178.284 86.159C178.284 84.9629 179.289 83.9921 180.529 83.9921C181.768 83.9921 182.772 84.9629 182.772 86.159C182.772 87.3559 181.768 88.3259 180.529 88.3259C179.289 88.3259 178.284 87.3559 178.284 86.159Z" fill="white"/>
<path fill-rule="evenodd" clip-rule="evenodd" d="M207.081 62.8314C200.688 63.1388 189.041 60.6956 189.041 60.6956L187.289 61.5564C192.973 63.3841 205.313 64.3373 206.189 64.1836C216.885 63.5075 221.157 61.5095 221.403 54.7484C221.649 47.9866 214.212 38.674 214.212 38.674L213.043 39.6583C215.564 42.6701 219.621 48.7551 220.051 55.0248C220.481 61.2944 213.473 62.524 207.081 62.8314Z" fill="white"/>
<path fill-rule="evenodd" clip-rule="evenodd" d="M111.558 36.7047C111.588 34.154 114.385 27.4845 117.274 25.2714L116.229 24.2577C116.229 24.2577 109.836 31.4488 110.328 37.2884C110.82 43.1281 117.213 44.1729 128.308 43.2507L127.355 41.9598C127.355 41.9598 120.839 42.8207 117.09 41.9909C113.34 41.1611 111.527 39.2554 111.558 36.7047Z" fill="white"/>
</g>
<defs>
<clipPath id="clip0">
<rect width="341.753" height="132" fill="white"/>
</clipPath>
</defs>
</svg>
